G04 #@! TF.FileFunction,Copper,L1,Top,Signal*
%FSLAX46Y46*%
G04 Gerber Fmt 4.6, Leading zero omitted, Abs format (unit mm)*
G04 Created by KiCad (PCBNEW 4.0.7) date 08/20/19 17:13:51*
%MOMM*%
%LPD*%
G01*
G04 APERTURE LIST*
%ADD10C,0.100000*%
%ADD11C,1.600000*%
%ADD12R,1.800000X1.800000*%
%ADD13C,1.800000*%
%ADD14O,1.600000X1.600000*%
%ADD15R,1.600000X1.600000*%
%ADD16O,1.727200X1.727200*%
%ADD17O,1.700000X1.700000*%
%ADD18R,1.524000X1.524000*%
%ADD19C,1.524000*%
%ADD20C,0.600000*%
%ADD21C,0.250000*%
G04 APERTURE END LIST*
D10*
D11*
X226060000Y-79375000D03*
X231060000Y-79375000D03*
X186690000Y-79375000D03*
X191690000Y-79375000D03*
X194310000Y-79375000D03*
X199310000Y-79375000D03*
D12*
X191770000Y-59055000D03*
D13*
X191770000Y-56515000D03*
D12*
X204470000Y-59055000D03*
D13*
X204470000Y-56515000D03*
D11*
X186690000Y-71755000D03*
D14*
X196850000Y-71755000D03*
D11*
X196850000Y-67945000D03*
D14*
X186690000Y-67945000D03*
D11*
X199390000Y-75565000D03*
D14*
X209550000Y-75565000D03*
D11*
X226060000Y-67945000D03*
D14*
X236220000Y-67945000D03*
D11*
X226060000Y-71755000D03*
D14*
X236220000Y-71755000D03*
D11*
X199390000Y-67945000D03*
D14*
X209550000Y-67945000D03*
D11*
X226060000Y-75565000D03*
D14*
X236220000Y-75565000D03*
D11*
X199390000Y-71755000D03*
D14*
X209550000Y-71755000D03*
D15*
X185420000Y-98425000D03*
D14*
X233680000Y-83185000D03*
X187960000Y-98425000D03*
X231140000Y-83185000D03*
X190500000Y-98425000D03*
X228600000Y-83185000D03*
X193040000Y-98425000D03*
X226060000Y-83185000D03*
X195580000Y-98425000D03*
X223520000Y-83185000D03*
X198120000Y-98425000D03*
X220980000Y-83185000D03*
X200660000Y-98425000D03*
X218440000Y-83185000D03*
X203200000Y-98425000D03*
X215900000Y-83185000D03*
X205740000Y-98425000D03*
X213360000Y-83185000D03*
X208280000Y-98425000D03*
X210820000Y-83185000D03*
X210820000Y-98425000D03*
X208280000Y-83185000D03*
X213360000Y-98425000D03*
X205740000Y-83185000D03*
X215900000Y-98425000D03*
X203200000Y-83185000D03*
X218440000Y-98425000D03*
X200660000Y-83185000D03*
X220980000Y-98425000D03*
X198120000Y-83185000D03*
X223520000Y-98425000D03*
X195580000Y-83185000D03*
X226060000Y-98425000D03*
X193040000Y-83185000D03*
X228600000Y-98425000D03*
X190500000Y-83185000D03*
X231140000Y-98425000D03*
X187960000Y-83185000D03*
X233680000Y-98425000D03*
X185420000Y-83185000D03*
D16*
X212217000Y-78105000D03*
X214757000Y-78105000D03*
X214757000Y-75565000D03*
X212217000Y-75565000D03*
X214757000Y-73025000D03*
X199390000Y-100965000D03*
X194310000Y-100965000D03*
X191770000Y-100965000D03*
X189230000Y-100965000D03*
X186690000Y-100965000D03*
X184150000Y-100965000D03*
X181610000Y-100965000D03*
X179070000Y-100965000D03*
X234950000Y-52705000D03*
X232410000Y-52705000D03*
X229870000Y-52705000D03*
X227330000Y-52705000D03*
X224790000Y-52705000D03*
X222250000Y-52705000D03*
X219710000Y-52705000D03*
X217170000Y-52705000D03*
X212090000Y-52705000D03*
X209550000Y-52705000D03*
X207010000Y-52705000D03*
X204470000Y-52705000D03*
X201930000Y-52705000D03*
X199390000Y-52705000D03*
X196850000Y-52705000D03*
X194310000Y-52705000D03*
X175006000Y-52705000D03*
X190246000Y-52705000D03*
X187706000Y-52705000D03*
X185166000Y-52705000D03*
X167386000Y-52705000D03*
X169926000Y-52705000D03*
X172466000Y-52705000D03*
X177546000Y-52705000D03*
X180086000Y-52705000D03*
X182626000Y-52705000D03*
X176530000Y-100965000D03*
X201930000Y-100965000D03*
X204470000Y-100965000D03*
X207010000Y-100965000D03*
X209550000Y-100965000D03*
X212090000Y-100965000D03*
X214630000Y-100965000D03*
X217170000Y-100965000D03*
X222250000Y-100965000D03*
X224790000Y-100965000D03*
X227330000Y-100965000D03*
X229870000Y-100965000D03*
X232410000Y-100965000D03*
X234950000Y-100965000D03*
X237490000Y-100965000D03*
X240030000Y-100965000D03*
X242570000Y-52705000D03*
X245110000Y-52705000D03*
X242570000Y-55245000D03*
X245110000Y-55245000D03*
X242570000Y-57785000D03*
X245110000Y-57785000D03*
X242570000Y-60325000D03*
X245110000Y-60325000D03*
X242570000Y-62865000D03*
X245110000Y-62865000D03*
X242570000Y-65405000D03*
X245110000Y-65405000D03*
X242570000Y-67945000D03*
X245110000Y-67945000D03*
X242570000Y-70485000D03*
X245110000Y-70485000D03*
X242570000Y-73025000D03*
X245110000Y-73025000D03*
X242570000Y-75565000D03*
X245110000Y-75565000D03*
X242570000Y-78105000D03*
X245110000Y-78105000D03*
X242570000Y-80645000D03*
X245110000Y-80645000D03*
X242570000Y-83185000D03*
X245110000Y-83185000D03*
X242570000Y-85725000D03*
X245110000Y-85725000D03*
X242570000Y-88265000D03*
X245110000Y-88265000D03*
X242570000Y-90805000D03*
X245110000Y-90805000D03*
X242570000Y-93345000D03*
X245110000Y-93345000D03*
X242570000Y-95885000D03*
X245110000Y-95885000D03*
X212217000Y-73025000D03*
D17*
X180975000Y-56515000D03*
X180975000Y-59055000D03*
X180975000Y-61595000D03*
X180975000Y-64135000D03*
X180975000Y-66675000D03*
X180975000Y-69215000D03*
X180975000Y-71755000D03*
X180975000Y-74295000D03*
X180975000Y-76835000D03*
X180975000Y-79375000D03*
X180975000Y-81915000D03*
X180975000Y-84455000D03*
X180975000Y-86995000D03*
X180975000Y-89535000D03*
X180975000Y-92075000D03*
X180975000Y-94615000D03*
X180975000Y-97155000D03*
X175895000Y-56515000D03*
X175895000Y-59055000D03*
X175895000Y-61595000D03*
X175895000Y-64135000D03*
X175895000Y-66675000D03*
X175895000Y-69215000D03*
X175895000Y-71755000D03*
X175895000Y-74295000D03*
X175895000Y-76835000D03*
X175895000Y-79375000D03*
X175895000Y-81915000D03*
X175895000Y-84455000D03*
X175895000Y-86995000D03*
X175895000Y-89535000D03*
X175895000Y-92075000D03*
X175895000Y-94615000D03*
X175895000Y-97155000D03*
X173355000Y-56515000D03*
X173355000Y-59055000D03*
X173355000Y-61595000D03*
X173355000Y-64135000D03*
X173355000Y-66675000D03*
X173355000Y-69215000D03*
X173355000Y-71755000D03*
X173355000Y-74295000D03*
X173355000Y-76835000D03*
X173355000Y-79375000D03*
X173355000Y-81915000D03*
X173355000Y-84455000D03*
X173355000Y-86995000D03*
X173355000Y-89535000D03*
X173355000Y-92075000D03*
X173355000Y-94615000D03*
X173355000Y-97155000D03*
X170815000Y-56515000D03*
X170815000Y-59055000D03*
X170815000Y-61595000D03*
X170815000Y-64135000D03*
X170815000Y-66675000D03*
X170815000Y-69215000D03*
X170815000Y-71755000D03*
X170815000Y-74295000D03*
X170815000Y-76835000D03*
X170815000Y-79375000D03*
X170815000Y-81915000D03*
X170815000Y-84455000D03*
X170815000Y-86995000D03*
X170815000Y-89535000D03*
X170815000Y-92075000D03*
X170815000Y-94615000D03*
X170815000Y-97155000D03*
X168275000Y-56515000D03*
X168275000Y-59055000D03*
X168275000Y-61595000D03*
X168275000Y-64135000D03*
X168275000Y-66675000D03*
X168275000Y-69215000D03*
X168275000Y-71755000D03*
X168275000Y-74295000D03*
X168275000Y-76835000D03*
X168275000Y-79375000D03*
X168275000Y-81915000D03*
X168275000Y-84455000D03*
X168275000Y-86995000D03*
X168275000Y-89535000D03*
X168275000Y-92075000D03*
X168275000Y-94615000D03*
X168275000Y-97155000D03*
X165735000Y-56515000D03*
X165735000Y-59055000D03*
X165735000Y-61595000D03*
X165735000Y-64135000D03*
X165735000Y-66675000D03*
X165735000Y-69215000D03*
X165735000Y-71755000D03*
X165735000Y-74295000D03*
X165735000Y-76835000D03*
X165735000Y-79375000D03*
X165735000Y-81915000D03*
X165735000Y-84455000D03*
X165735000Y-86995000D03*
X165735000Y-89535000D03*
X165735000Y-92075000D03*
X165735000Y-94615000D03*
X165735000Y-97155000D03*
X163195000Y-56515000D03*
X163195000Y-59055000D03*
X163195000Y-61595000D03*
X163195000Y-64135000D03*
X163195000Y-66675000D03*
X163195000Y-69215000D03*
X163195000Y-71755000D03*
X163195000Y-74295000D03*
X163195000Y-76835000D03*
X163195000Y-79375000D03*
X163195000Y-81915000D03*
X163195000Y-84455000D03*
X163195000Y-86995000D03*
X163195000Y-89535000D03*
X163195000Y-92075000D03*
X163195000Y-94615000D03*
X163195000Y-97155000D03*
X160655000Y-56515000D03*
X160655000Y-59055000D03*
X160655000Y-61595000D03*
X160655000Y-64135000D03*
X160655000Y-66675000D03*
X160655000Y-69215000D03*
X160655000Y-71755000D03*
X160655000Y-74295000D03*
X160655000Y-76835000D03*
X160655000Y-79375000D03*
X160655000Y-81915000D03*
X160655000Y-84455000D03*
X160655000Y-86995000D03*
X160655000Y-89535000D03*
X160655000Y-92075000D03*
X160655000Y-94615000D03*
X160655000Y-97155000D03*
X158115000Y-56515000D03*
X158115000Y-59055000D03*
X158115000Y-61595000D03*
X158115000Y-64135000D03*
X158115000Y-66675000D03*
X158115000Y-69215000D03*
X158115000Y-71755000D03*
X158115000Y-74295000D03*
X158115000Y-76835000D03*
X158115000Y-79375000D03*
X158115000Y-81915000D03*
X158115000Y-84455000D03*
X158115000Y-86995000D03*
X158115000Y-89535000D03*
X158115000Y-92075000D03*
X158115000Y-94615000D03*
X158115000Y-97155000D03*
X155575000Y-56515000D03*
X155575000Y-59055000D03*
X155575000Y-61595000D03*
X155575000Y-64135000D03*
X155575000Y-66675000D03*
X155575000Y-69215000D03*
X155575000Y-71755000D03*
X155575000Y-74295000D03*
X155575000Y-76835000D03*
X155575000Y-79375000D03*
X155575000Y-81915000D03*
X155575000Y-84455000D03*
X155575000Y-86995000D03*
X155575000Y-89535000D03*
X155575000Y-92075000D03*
X155575000Y-94615000D03*
X155575000Y-97155000D03*
X153035000Y-56515000D03*
X153035000Y-59055000D03*
X153035000Y-61595000D03*
X153035000Y-64135000D03*
X153035000Y-66675000D03*
X153035000Y-69215000D03*
X153035000Y-71755000D03*
X153035000Y-74295000D03*
X153035000Y-76835000D03*
X153035000Y-79375000D03*
X153035000Y-81915000D03*
X153035000Y-84455000D03*
X153035000Y-86995000D03*
X153035000Y-89535000D03*
X153035000Y-92075000D03*
X153035000Y-94615000D03*
X153035000Y-97155000D03*
X178435000Y-56515000D03*
X178435000Y-59055000D03*
X178435000Y-61595000D03*
X178435000Y-64135000D03*
X178435000Y-66675000D03*
X178435000Y-69215000D03*
X178435000Y-71755000D03*
X178435000Y-74295000D03*
X178435000Y-76835000D03*
X178435000Y-79375000D03*
X178435000Y-81915000D03*
X178435000Y-84455000D03*
X178435000Y-86995000D03*
X178435000Y-89535000D03*
X178435000Y-92075000D03*
X178435000Y-94615000D03*
X178435000Y-97155000D03*
D18*
X218405000Y-56030000D03*
D19*
X220945000Y-56030000D03*
X223485000Y-56030000D03*
X226025000Y-56030000D03*
D20*
X226060000Y-65405000D03*
X224155000Y-76200000D03*
X218440000Y-76200000D03*
X224790000Y-80645000D03*
X184150000Y-78105000D03*
X186690000Y-76835000D03*
X197485000Y-57785000D03*
X198120000Y-59690000D03*
X218440000Y-66675000D03*
X227330000Y-66675000D03*
X241300000Y-79375000D03*
X238760000Y-79375000D03*
X233680000Y-68580000D03*
X233680000Y-70485000D03*
X191135000Y-81280000D03*
X189230000Y-76835000D03*
X193040000Y-96520000D03*
X218440000Y-65405000D03*
X226695000Y-66040000D03*
X234315000Y-71120000D03*
X234315000Y-67945000D03*
X239395000Y-78740000D03*
X187960000Y-76835000D03*
X189230000Y-81280000D03*
X194310000Y-85090000D03*
X195580000Y-86360000D03*
X235585000Y-86360000D03*
X217170000Y-74930000D03*
X203200000Y-80010000D03*
X233045000Y-71120000D03*
X233045000Y-67310000D03*
X234315000Y-66040000D03*
X232410000Y-70485000D03*
X232410000Y-86995000D03*
X240030000Y-76200000D03*
X194310000Y-96520000D03*
X234950000Y-81915000D03*
X223520000Y-59690000D03*
X223520000Y-65405000D03*
X222885000Y-60325000D03*
X222885000Y-64770000D03*
X240665000Y-73660000D03*
X240665000Y-74930000D03*
X236855000Y-83820000D03*
X234950000Y-86995000D03*
X222250000Y-65405000D03*
X222250000Y-60960000D03*
X221615000Y-61595000D03*
X221615000Y-64770000D03*
X220980000Y-62230000D03*
X220980000Y-65405000D03*
X220345000Y-62865000D03*
X220345000Y-64770000D03*
X219710000Y-63500000D03*
X219710000Y-65405000D03*
X234950000Y-74295000D03*
X239395000Y-73660000D03*
X217805000Y-74295000D03*
X218440000Y-73660000D03*
X234950000Y-73025000D03*
X238760000Y-73025000D03*
X235585000Y-85090000D03*
X196215000Y-85090000D03*
X234950000Y-85725000D03*
X247015000Y-72390000D03*
X236220000Y-84455000D03*
X194945000Y-84455000D03*
X247650000Y-73660000D03*
X221615000Y-89535000D03*
X215265000Y-55245000D03*
X215265000Y-53975000D03*
X214630000Y-55880000D03*
X214630000Y-53340000D03*
D21*
X220945000Y-56030000D02*
X220945000Y-54610000D01*
X220945000Y-54610000D02*
X220980000Y-54610000D01*
X226060000Y-67945000D02*
X226060000Y-65405000D01*
X215900000Y-76835000D02*
X216535000Y-76200000D01*
X224155000Y-76200000D02*
X224790000Y-75565000D01*
X216535000Y-76200000D02*
X218440000Y-76200000D01*
X209550000Y-75565000D02*
X210820000Y-76835000D01*
X210820000Y-76835000D02*
X215900000Y-76835000D01*
X224790000Y-78740000D02*
X224790000Y-80645000D01*
X226060000Y-79375000D02*
X225425000Y-79375000D01*
X224790000Y-73025000D02*
X226060000Y-71755000D01*
X224790000Y-75565000D02*
X224790000Y-73025000D01*
X224790000Y-78740000D02*
X224790000Y-75565000D01*
X225425000Y-54610000D02*
X220980000Y-54610000D01*
X242570000Y-52705000D02*
X240030000Y-55245000D01*
X236855000Y-54610000D02*
X226695000Y-54610000D01*
X237490000Y-55245000D02*
X236855000Y-54610000D01*
X240030000Y-55245000D02*
X237490000Y-55245000D01*
X226695000Y-54610000D02*
X225425000Y-54610000D01*
X220980000Y-54610000D02*
X186690000Y-54610000D01*
X186690000Y-54610000D02*
X185420000Y-55880000D01*
X185420000Y-55880000D02*
X185420000Y-69215000D01*
X185420000Y-83185000D02*
X185420000Y-84455000D01*
X185420000Y-84455000D02*
X186690000Y-85725000D01*
X186690000Y-100965000D02*
X186690000Y-85725000D01*
X242570000Y-52705000D02*
X245110000Y-52705000D01*
X185420000Y-80645000D02*
X185420000Y-69215000D01*
X185420000Y-69215000D02*
X186690000Y-67945000D01*
X185420000Y-83185000D02*
X185420000Y-80645000D01*
X185420000Y-80645000D02*
X186690000Y-79375000D01*
X226060000Y-67945000D02*
X226060000Y-71755000D01*
X224790000Y-80645000D02*
X226060000Y-79375000D01*
X184150000Y-78105000D02*
X184150000Y-78740000D01*
X185420000Y-98425000D02*
X185420000Y-85725000D01*
X184150000Y-84455000D02*
X184150000Y-78740000D01*
X185420000Y-85725000D02*
X184150000Y-84455000D01*
X194310000Y-79375000D02*
X194310000Y-78105000D01*
X186690000Y-76835000D02*
X186690000Y-71755000D01*
X187325000Y-77470000D02*
X186690000Y-76835000D01*
X193675000Y-77470000D02*
X187325000Y-77470000D01*
X194310000Y-78105000D02*
X193675000Y-77470000D01*
X199390000Y-67945000D02*
X199390000Y-68580000D01*
X199390000Y-68580000D02*
X198755000Y-69215000D01*
X198755000Y-69215000D02*
X195580000Y-69215000D01*
X195580000Y-69215000D02*
X194945000Y-68580000D01*
X194945000Y-68580000D02*
X194945000Y-59690000D01*
X194945000Y-59690000D02*
X194310000Y-59055000D01*
X194310000Y-59055000D02*
X191770000Y-59055000D01*
X230505000Y-67310000D02*
X229870000Y-66675000D01*
X198120000Y-64770000D02*
X198120000Y-59690000D01*
X198755000Y-65405000D02*
X198120000Y-64770000D01*
X217170000Y-65405000D02*
X198755000Y-65405000D01*
X218440000Y-66675000D02*
X217170000Y-65405000D01*
X229870000Y-66675000D02*
X227330000Y-66675000D01*
X191770000Y-56515000D02*
X194310000Y-56515000D01*
X194310000Y-56515000D02*
X195580000Y-57785000D01*
X231775000Y-68580000D02*
X231140000Y-68580000D01*
X236220000Y-79375000D02*
X234130002Y-79375000D01*
X243840000Y-79375000D02*
X241300000Y-79375000D01*
X238760000Y-79375000D02*
X236220000Y-79375000D01*
X245110000Y-78105000D02*
X243840000Y-79375000D01*
X233680000Y-78924998D02*
X233680000Y-70485000D01*
X234130002Y-79375000D02*
X233680000Y-78924998D01*
X233680000Y-68580000D02*
X231775000Y-68580000D01*
X230505000Y-67945000D02*
X230505000Y-67310000D01*
X231140000Y-68580000D02*
X230505000Y-67945000D01*
X197485000Y-57785000D02*
X195580000Y-57785000D01*
X191770000Y-84455000D02*
X191770000Y-85090000D01*
X191770000Y-85090000D02*
X193040000Y-86360000D01*
X188595000Y-74295000D02*
X188595000Y-57150000D01*
X188595000Y-57150000D02*
X189230000Y-56515000D01*
X189230000Y-56515000D02*
X191770000Y-56515000D01*
X191770000Y-81915000D02*
X191770000Y-84455000D01*
X191135000Y-81280000D02*
X191770000Y-81915000D01*
X188595000Y-76200000D02*
X189230000Y-76835000D01*
X188595000Y-74295000D02*
X188595000Y-76200000D01*
X193040000Y-96520000D02*
X193040000Y-86360000D01*
X231140000Y-66675000D02*
X230505000Y-66040000D01*
X204470000Y-64135000D02*
X204470000Y-59055000D01*
X205105000Y-64770000D02*
X204470000Y-64135000D01*
X217805000Y-64770000D02*
X205105000Y-64770000D01*
X218440000Y-65405000D02*
X217805000Y-64770000D01*
X230505000Y-66040000D02*
X226695000Y-66040000D01*
X231140000Y-67310000D02*
X231140000Y-66675000D01*
X231775000Y-67945000D02*
X234315000Y-67945000D01*
X234950000Y-78740000D02*
X234315000Y-78105000D01*
X234315000Y-78105000D02*
X234315000Y-71120000D01*
X239395000Y-78740000D02*
X234950000Y-78740000D01*
X231775000Y-67945000D02*
X231140000Y-67310000D01*
X196850000Y-67945000D02*
X196850000Y-59690000D01*
X196850000Y-59690000D02*
X197485000Y-59055000D01*
X197485000Y-59055000D02*
X204470000Y-59055000D01*
X190500000Y-95885000D02*
X191770000Y-97155000D01*
X189230000Y-84455000D02*
X190500000Y-85725000D01*
X190500000Y-85725000D02*
X190500000Y-95885000D01*
X195580000Y-98425000D02*
X195580000Y-97790000D01*
X195580000Y-97790000D02*
X194945000Y-97155000D01*
X194945000Y-97155000D02*
X191770000Y-97155000D01*
X189230000Y-81280000D02*
X189230000Y-84455000D01*
X204470000Y-56515000D02*
X203200000Y-55245000D01*
X187960000Y-55880000D02*
X187960000Y-74295000D01*
X188595000Y-55245000D02*
X187960000Y-55880000D01*
X203200000Y-55245000D02*
X188595000Y-55245000D01*
X187960000Y-74295000D02*
X187960000Y-76835000D01*
X200660000Y-74930000D02*
X200025000Y-74295000D01*
X196850000Y-73660000D02*
X196850000Y-71755000D01*
X197485000Y-74295000D02*
X196850000Y-73660000D01*
X200025000Y-74295000D02*
X197485000Y-74295000D01*
X196215000Y-86360000D02*
X233680000Y-86360000D01*
X235585000Y-86360000D02*
X233680000Y-86360000D01*
X196215000Y-86360000D02*
X195580000Y-86360000D01*
X200660000Y-76200000D02*
X200660000Y-74930000D01*
X200025000Y-76835000D02*
X200660000Y-76200000D01*
X196850000Y-76835000D02*
X200025000Y-76835000D01*
X196215000Y-77470000D02*
X196850000Y-76835000D01*
X196215000Y-80645000D02*
X196215000Y-77470000D01*
X195580000Y-81280000D02*
X196215000Y-80645000D01*
X194945000Y-81280000D02*
X195580000Y-81280000D01*
X194310000Y-81915000D02*
X194945000Y-81280000D01*
X194310000Y-85090000D02*
X194310000Y-81915000D01*
X196850000Y-72390000D02*
X196850000Y-71755000D01*
X186690000Y-82550000D02*
X186690000Y-84455000D01*
X196215000Y-75565000D02*
X195580000Y-76200000D01*
X195580000Y-76200000D02*
X195580000Y-80010000D01*
X195580000Y-80010000D02*
X194945000Y-80645000D01*
X194945000Y-80645000D02*
X187325000Y-80645000D01*
X187325000Y-80645000D02*
X186690000Y-81280000D01*
X186690000Y-81280000D02*
X186690000Y-82550000D01*
X199390000Y-75565000D02*
X196215000Y-75565000D01*
X187960000Y-85725000D02*
X187960000Y-98425000D01*
X186690000Y-84455000D02*
X187960000Y-85725000D01*
X236220000Y-67945000D02*
X236220000Y-68580000D01*
X236220000Y-68580000D02*
X235585000Y-69215000D01*
X227965000Y-69215000D02*
X227330000Y-69850000D01*
X235585000Y-69215000D02*
X227965000Y-69215000D01*
X227330000Y-78740000D02*
X227330000Y-69850000D01*
X226060000Y-81915000D02*
X227330000Y-80645000D01*
X227330000Y-80645000D02*
X227330000Y-78740000D01*
X226060000Y-83185000D02*
X226060000Y-81915000D01*
X228600000Y-72390000D02*
X228600000Y-70485000D01*
X236220000Y-70485000D02*
X236220000Y-71755000D01*
X235585000Y-69850000D02*
X236220000Y-70485000D01*
X229235000Y-69850000D02*
X235585000Y-69850000D01*
X228600000Y-70485000D02*
X229235000Y-69850000D01*
X228600000Y-83185000D02*
X228600000Y-72390000D01*
X215900000Y-74295000D02*
X216535000Y-74295000D01*
X216535000Y-74295000D02*
X217170000Y-74930000D01*
X209550000Y-73025000D02*
X209550000Y-71755000D01*
X210820000Y-74295000D02*
X209550000Y-73025000D01*
X215900000Y-74295000D02*
X210820000Y-74295000D01*
X236220000Y-75565000D02*
X236855000Y-75565000D01*
X236855000Y-75565000D02*
X238125000Y-74295000D01*
X238125000Y-74295000D02*
X243840000Y-74295000D01*
X243840000Y-74295000D02*
X245110000Y-75565000D01*
X203200000Y-72390000D02*
X202565000Y-71755000D01*
X202565000Y-71755000D02*
X199390000Y-71755000D01*
X203200000Y-80010000D02*
X203200000Y-72390000D01*
X235585000Y-65405000D02*
X233680000Y-65405000D01*
X233680000Y-83185000D02*
X233680000Y-81280000D01*
X233045000Y-80645000D02*
X233045000Y-71120000D01*
X233680000Y-81280000D02*
X233045000Y-80645000D01*
X235585000Y-65405000D02*
X242570000Y-65405000D01*
X233045000Y-66040000D02*
X233045000Y-67310000D01*
X233680000Y-65405000D02*
X233045000Y-66040000D01*
X245110000Y-65405000D02*
X243840000Y-66675000D01*
X243840000Y-66675000D02*
X241300000Y-66675000D01*
X240665000Y-66040000D02*
X236220000Y-66040000D01*
X241300000Y-66675000D02*
X240665000Y-66040000D01*
X234315000Y-66040000D02*
X236220000Y-66040000D01*
X231140000Y-81280000D02*
X231140000Y-83185000D01*
X232410000Y-80010000D02*
X232410000Y-72390000D01*
X231140000Y-81280000D02*
X232410000Y-80010000D01*
X232410000Y-72390000D02*
X232410000Y-70485000D01*
X231775000Y-88900000D02*
X232410000Y-88265000D01*
X232410000Y-88265000D02*
X232410000Y-86995000D01*
X238125000Y-81280000D02*
X240030000Y-79375000D01*
X240030000Y-79375000D02*
X240030000Y-76200000D01*
X208915000Y-88900000D02*
X226695000Y-88900000D01*
X202565000Y-95250000D02*
X208915000Y-88900000D01*
X198755000Y-95250000D02*
X202565000Y-95250000D01*
X197485000Y-96520000D02*
X198755000Y-95250000D01*
X194310000Y-96520000D02*
X197485000Y-96520000D01*
X226695000Y-88900000D02*
X231775000Y-88900000D01*
X237490000Y-81915000D02*
X238125000Y-81280000D01*
X234950000Y-81915000D02*
X237490000Y-81915000D01*
X240665000Y-55880000D02*
X236855000Y-59690000D01*
X236855000Y-59690000D02*
X223520000Y-59690000D01*
X241935000Y-55245000D02*
X241300000Y-55880000D01*
X241300000Y-55880000D02*
X240665000Y-55880000D01*
X241935000Y-55245000D02*
X242570000Y-55245000D01*
X223520000Y-83185000D02*
X223520000Y-65405000D01*
X223520000Y-83185000D02*
X223520000Y-82550000D01*
X241300000Y-56515000D02*
X237490000Y-60325000D01*
X237490000Y-60325000D02*
X222885000Y-60325000D01*
X220980000Y-83185000D02*
X222885000Y-81280000D01*
X222885000Y-81280000D02*
X222885000Y-64770000D01*
X243840000Y-56515000D02*
X245110000Y-55245000D01*
X241300000Y-56515000D02*
X243840000Y-56515000D01*
X220980000Y-83185000D02*
X220980000Y-82550000D01*
X226060000Y-90170000D02*
X233680000Y-90170000D01*
X210185000Y-90170000D02*
X226060000Y-90170000D01*
X203835000Y-96520000D02*
X210185000Y-90170000D01*
X201930000Y-96520000D02*
X203835000Y-96520000D01*
X200660000Y-97790000D02*
X201930000Y-96520000D01*
X241300000Y-67945000D02*
X242570000Y-67945000D01*
X240665000Y-68580000D02*
X241300000Y-67945000D01*
X240665000Y-69215000D02*
X240665000Y-68580000D01*
X240665000Y-73660000D02*
X240665000Y-69215000D01*
X240665000Y-80010000D02*
X240665000Y-74930000D01*
X236855000Y-83820000D02*
X240665000Y-80010000D01*
X234950000Y-88900000D02*
X234950000Y-86995000D01*
X233680000Y-90170000D02*
X234950000Y-88900000D01*
X200660000Y-98425000D02*
X200660000Y-97790000D01*
X241300000Y-57785000D02*
X238125000Y-60960000D01*
X219710000Y-81915000D02*
X220345000Y-81280000D01*
X220345000Y-81280000D02*
X221615000Y-81280000D01*
X221615000Y-81280000D02*
X222250000Y-80645000D01*
X222250000Y-80645000D02*
X222250000Y-65405000D01*
X218440000Y-83185000D02*
X219710000Y-81915000D01*
X241300000Y-57785000D02*
X242570000Y-57785000D01*
X238125000Y-60960000D02*
X222250000Y-60960000D01*
X215265000Y-90805000D02*
X235769998Y-90805000D01*
X210820000Y-90805000D02*
X215265000Y-90805000D01*
X203200000Y-98425000D02*
X210820000Y-90805000D01*
X241300000Y-80645000D02*
X242570000Y-80645000D01*
X236220000Y-85725000D02*
X241300000Y-80645000D01*
X236220000Y-90354998D02*
X236220000Y-85725000D01*
X235769998Y-90805000D02*
X236220000Y-90354998D01*
X219075000Y-81280000D02*
X219710000Y-80645000D01*
X219710000Y-80645000D02*
X220980000Y-80645000D01*
X220980000Y-80645000D02*
X221615000Y-80010000D01*
X218440000Y-81915000D02*
X219075000Y-81280000D01*
X216535000Y-81915000D02*
X218440000Y-81915000D01*
X216535000Y-81915000D02*
X215900000Y-82550000D01*
X245110000Y-57785000D02*
X243840000Y-59055000D01*
X215900000Y-83185000D02*
X215900000Y-82550000D01*
X241300000Y-59055000D02*
X238760000Y-61595000D01*
X238760000Y-61595000D02*
X221615000Y-61595000D01*
X221615000Y-80010000D02*
X221615000Y-64770000D01*
X241300000Y-59055000D02*
X243840000Y-59055000D01*
X245110000Y-80645000D02*
X245110000Y-81280000D01*
X245110000Y-81280000D02*
X244475000Y-81915000D01*
X244475000Y-81915000D02*
X241300000Y-81915000D01*
X241300000Y-81915000D02*
X236855000Y-86360000D01*
X236855000Y-86360000D02*
X236855000Y-90805000D01*
X236855000Y-90805000D02*
X236220000Y-91440000D01*
X236220000Y-91440000D02*
X215265000Y-91440000D01*
X205740000Y-98425000D02*
X205740000Y-97155000D01*
X211455000Y-91440000D02*
X215265000Y-91440000D01*
X205740000Y-97155000D02*
X211455000Y-91440000D01*
X241300000Y-60325000D02*
X239395000Y-62230000D01*
X239395000Y-62230000D02*
X220980000Y-62230000D01*
X218440000Y-80645000D02*
X219075000Y-80010000D01*
X213360000Y-81915000D02*
X213995000Y-81280000D01*
X213995000Y-81280000D02*
X217805000Y-81280000D01*
X217805000Y-81280000D02*
X218440000Y-80645000D01*
X213360000Y-81915000D02*
X213360000Y-83185000D01*
X220980000Y-79375000D02*
X220980000Y-65405000D01*
X220345000Y-80010000D02*
X220980000Y-79375000D01*
X219075000Y-80010000D02*
X220345000Y-80010000D01*
X242570000Y-60325000D02*
X241300000Y-60325000D01*
X238125000Y-86360000D02*
X239395000Y-85090000D01*
X215265000Y-92075000D02*
X236855000Y-92075000D01*
X208280000Y-95885000D02*
X212090000Y-92075000D01*
X212090000Y-92075000D02*
X215265000Y-92075000D01*
X208280000Y-98425000D02*
X208280000Y-95885000D01*
X241300000Y-83185000D02*
X242570000Y-83185000D01*
X239395000Y-85090000D02*
X241300000Y-83185000D01*
X237490000Y-86995000D02*
X238125000Y-86360000D01*
X237490000Y-91440000D02*
X237490000Y-86995000D01*
X236855000Y-92075000D02*
X237490000Y-91440000D01*
X241300000Y-61595000D02*
X240665000Y-62230000D01*
X240030000Y-62865000D02*
X220345000Y-62865000D01*
X240665000Y-62230000D02*
X240030000Y-62865000D01*
X220345000Y-64770000D02*
X220345000Y-78740000D01*
X217805000Y-80010000D02*
X218440000Y-79375000D01*
X217170000Y-80645000D02*
X217805000Y-80010000D01*
X210820000Y-81280000D02*
X211455000Y-80645000D01*
X211455000Y-80645000D02*
X217170000Y-80645000D01*
X210820000Y-83185000D02*
X210820000Y-81280000D01*
X219710000Y-79375000D02*
X220345000Y-78740000D01*
X218440000Y-79375000D02*
X219710000Y-79375000D01*
X243840000Y-61595000D02*
X245110000Y-60325000D01*
X241300000Y-61595000D02*
X243840000Y-61595000D01*
X238760000Y-86995000D02*
X240030000Y-85725000D01*
X215900000Y-92710000D02*
X237490000Y-92710000D01*
X210820000Y-94615000D02*
X212725000Y-92710000D01*
X212725000Y-92710000D02*
X215900000Y-92710000D01*
X210820000Y-98425000D02*
X210820000Y-94615000D01*
X244475000Y-84455000D02*
X245110000Y-83820000D01*
X240030000Y-85725000D02*
X241300000Y-84455000D01*
X241300000Y-84455000D02*
X244475000Y-84455000D01*
X238125000Y-87630000D02*
X238760000Y-86995000D01*
X238125000Y-92075000D02*
X238125000Y-87630000D01*
X237490000Y-92710000D02*
X238125000Y-92075000D01*
X245110000Y-83820000D02*
X245110000Y-83185000D01*
X242570000Y-62865000D02*
X241935000Y-62865000D01*
X241935000Y-62865000D02*
X241300000Y-63500000D01*
X241300000Y-63500000D02*
X219710000Y-63500000D01*
X217805000Y-78740000D02*
X219075000Y-78740000D01*
X219075000Y-78740000D02*
X219710000Y-78105000D01*
X219710000Y-78105000D02*
X219710000Y-65405000D01*
X216535000Y-80010000D02*
X217170000Y-79375000D01*
X208280000Y-80645000D02*
X208280000Y-83185000D01*
X208280000Y-80645000D02*
X208915000Y-80010000D01*
X208915000Y-80010000D02*
X216535000Y-80010000D01*
X217170000Y-79375000D02*
X217805000Y-78740000D01*
X239395000Y-87630000D02*
X240665000Y-86360000D01*
X242570000Y-85725000D02*
X241300000Y-85725000D01*
X212725000Y-93980000D02*
X213360000Y-93345000D01*
X213360000Y-93345000D02*
X216535000Y-93345000D01*
X212090000Y-96520000D02*
X213360000Y-97790000D01*
X212090000Y-96520000D02*
X212090000Y-94615000D01*
X212090000Y-94615000D02*
X212725000Y-93980000D01*
X238125000Y-93345000D02*
X216535000Y-93345000D01*
X238760000Y-92710000D02*
X238125000Y-93345000D01*
X238760000Y-88265000D02*
X238760000Y-92710000D01*
X239395000Y-87630000D02*
X238760000Y-88265000D01*
X241300000Y-85725000D02*
X240665000Y-86360000D01*
X213360000Y-98425000D02*
X213360000Y-97790000D01*
X223520000Y-64135000D02*
X241300000Y-64135000D01*
X219710000Y-64135000D02*
X219075000Y-64770000D01*
X223520000Y-64135000D02*
X219710000Y-64135000D01*
X216535000Y-78740000D02*
X217170000Y-78105000D01*
X217170000Y-78105000D02*
X218440000Y-78105000D01*
X218440000Y-78105000D02*
X219075000Y-77470000D01*
X219075000Y-77470000D02*
X219075000Y-64770000D01*
X215900000Y-79375000D02*
X216535000Y-78740000D01*
X205740000Y-83185000D02*
X205740000Y-80010000D01*
X206375000Y-79375000D02*
X215900000Y-79375000D01*
X205740000Y-80010000D02*
X206375000Y-79375000D01*
X243840000Y-64135000D02*
X245110000Y-62865000D01*
X241300000Y-64135000D02*
X243840000Y-64135000D01*
X240030000Y-88265000D02*
X241300000Y-86995000D01*
X241300000Y-86995000D02*
X241935000Y-86995000D01*
X237490000Y-93980000D02*
X238760000Y-93980000D01*
X239395000Y-88900000D02*
X240030000Y-88265000D01*
X239395000Y-93345000D02*
X239395000Y-88900000D01*
X238760000Y-93980000D02*
X239395000Y-93345000D01*
X245110000Y-85725000D02*
X245110000Y-86360000D01*
X245110000Y-86360000D02*
X244475000Y-86995000D01*
X244475000Y-86995000D02*
X241935000Y-86995000D01*
X237490000Y-93980000D02*
X220345000Y-93980000D01*
X217170000Y-94615000D02*
X217805000Y-93980000D01*
X217170000Y-96520000D02*
X217170000Y-94615000D01*
X215900000Y-97790000D02*
X217170000Y-96520000D01*
X217805000Y-93980000D02*
X220345000Y-93980000D01*
X215900000Y-98425000D02*
X215900000Y-97790000D01*
X242570000Y-88265000D02*
X241300000Y-88265000D01*
X241300000Y-88265000D02*
X240665000Y-88900000D01*
X238125000Y-94615000D02*
X239395000Y-94615000D01*
X240030000Y-89535000D02*
X240665000Y-88900000D01*
X240030000Y-93980000D02*
X240030000Y-89535000D01*
X239395000Y-94615000D02*
X240030000Y-93980000D01*
X220980000Y-94615000D02*
X238125000Y-94615000D01*
X218440000Y-95250000D02*
X219075000Y-94615000D01*
X219075000Y-94615000D02*
X220980000Y-94615000D01*
X218440000Y-98425000D02*
X218440000Y-95250000D01*
X208280000Y-71120000D02*
X208915000Y-70485000D01*
X207645000Y-78740000D02*
X208280000Y-78105000D01*
X208280000Y-78105000D02*
X208280000Y-71120000D01*
X200660000Y-82550000D02*
X201295000Y-81915000D01*
X201295000Y-81915000D02*
X204470000Y-81915000D01*
X204470000Y-81915000D02*
X205105000Y-81280000D01*
X205105000Y-81280000D02*
X205105000Y-79375000D01*
X205105000Y-79375000D02*
X205740000Y-78740000D01*
X205740000Y-78740000D02*
X207645000Y-78740000D01*
X208915000Y-70485000D02*
X210820000Y-70485000D01*
X216535000Y-72390000D02*
X215900000Y-71755000D01*
X216535000Y-73025000D02*
X216535000Y-72390000D01*
X235585000Y-73660000D02*
X234950000Y-74295000D01*
X239395000Y-73660000D02*
X235585000Y-73660000D01*
X212090000Y-71755000D02*
X215900000Y-71755000D01*
X210820000Y-70485000D02*
X212090000Y-71755000D01*
X217805000Y-74295000D02*
X216535000Y-73025000D01*
X200660000Y-83185000D02*
X200660000Y-82550000D01*
X238760000Y-95250000D02*
X240030000Y-95250000D01*
X240665000Y-90170000D02*
X241300000Y-89535000D01*
X240665000Y-94615000D02*
X240665000Y-90170000D01*
X240030000Y-95250000D02*
X240665000Y-94615000D01*
X220980000Y-95885000D02*
X221615000Y-95250000D01*
X220980000Y-98425000D02*
X220980000Y-95885000D01*
X243840000Y-89535000D02*
X241300000Y-89535000D01*
X243840000Y-89535000D02*
X245110000Y-88265000D01*
X238760000Y-95250000D02*
X221615000Y-95250000D01*
X207645000Y-70485000D02*
X208280000Y-69850000D01*
X205105000Y-78105000D02*
X207010000Y-78105000D01*
X207010000Y-78105000D02*
X207645000Y-77470000D01*
X207645000Y-77470000D02*
X207645000Y-70485000D01*
X198120000Y-81915000D02*
X198120000Y-83185000D01*
X204470000Y-80645000D02*
X204470000Y-78740000D01*
X203835000Y-81280000D02*
X204470000Y-80645000D01*
X198755000Y-81280000D02*
X203835000Y-81280000D01*
X198120000Y-81915000D02*
X198755000Y-81280000D01*
X204470000Y-78740000D02*
X205105000Y-78105000D01*
X208280000Y-69850000D02*
X211455000Y-69850000D01*
X211455000Y-69850000D02*
X212725000Y-71120000D01*
X216535000Y-71120000D02*
X212725000Y-71120000D01*
X217170000Y-71755000D02*
X216535000Y-71120000D01*
X217170000Y-72390000D02*
X217170000Y-71755000D01*
X218440000Y-73660000D02*
X217170000Y-72390000D01*
X235585000Y-73025000D02*
X234950000Y-73025000D01*
X238760000Y-73025000D02*
X235585000Y-73025000D01*
X232410000Y-85090000D02*
X196215000Y-85090000D01*
X235585000Y-85090000D02*
X232410000Y-85090000D01*
X246380000Y-96520000D02*
X246380000Y-73660000D01*
X246380000Y-96520000D02*
X245745000Y-97155000D01*
X245745000Y-97155000D02*
X241300000Y-97155000D01*
X241300000Y-97155000D02*
X240030000Y-95885000D01*
X240030000Y-95885000D02*
X226695000Y-95885000D01*
X226695000Y-95885000D02*
X226060000Y-96520000D01*
X226060000Y-98425000D02*
X226060000Y-96520000D01*
X246380000Y-71120000D02*
X245745000Y-70485000D01*
X246380000Y-71120000D02*
X246380000Y-73660000D01*
X245110000Y-70485000D02*
X245745000Y-70485000D01*
X193040000Y-84455000D02*
X193040000Y-85090000D01*
X193675000Y-85725000D02*
X194310000Y-85725000D01*
X193040000Y-85090000D02*
X193675000Y-85725000D01*
X233045000Y-85725000D02*
X194310000Y-85725000D01*
X234950000Y-85725000D02*
X233045000Y-85725000D01*
X193040000Y-84455000D02*
X193040000Y-83185000D01*
X247015000Y-97155000D02*
X246380000Y-97790000D01*
X247015000Y-72390000D02*
X247015000Y-97155000D01*
X239395000Y-96520000D02*
X240665000Y-97790000D01*
X240665000Y-97790000D02*
X246380000Y-97790000D01*
X228600000Y-98425000D02*
X228600000Y-97155000D01*
X229235000Y-96520000D02*
X238125000Y-96520000D01*
X228600000Y-97155000D02*
X229235000Y-96520000D01*
X238125000Y-96520000D02*
X239395000Y-96520000D01*
X227330000Y-84455000D02*
X194945000Y-84455000D01*
X236220000Y-84455000D02*
X227330000Y-84455000D01*
X247650000Y-95250000D02*
X247650000Y-73660000D01*
X238760000Y-97155000D02*
X240030000Y-98425000D01*
X240030000Y-98425000D02*
X247015000Y-98425000D01*
X231140000Y-97790000D02*
X231775000Y-97155000D01*
X231775000Y-97155000D02*
X237490000Y-97155000D01*
X237490000Y-97155000D02*
X238760000Y-97155000D01*
X247650000Y-97790000D02*
X247650000Y-95250000D01*
X247015000Y-98425000D02*
X247650000Y-97790000D01*
X231140000Y-98425000D02*
X231140000Y-97790000D01*
X182880000Y-99695000D02*
X182880000Y-54610000D01*
X196850000Y-99695000D02*
X196850000Y-101600000D01*
X196850000Y-101600000D02*
X195580000Y-102870000D01*
X195580000Y-102870000D02*
X183515000Y-102870000D01*
X183515000Y-102870000D02*
X182880000Y-102235000D01*
X182880000Y-102235000D02*
X182880000Y-99695000D01*
X198120000Y-98425000D02*
X196850000Y-99695000D01*
X188976000Y-53975000D02*
X190246000Y-52705000D01*
X183515000Y-53975000D02*
X188976000Y-53975000D01*
X182880000Y-54610000D02*
X183515000Y-53975000D01*
X198120000Y-98425000D02*
X198120000Y-97155000D01*
X209550000Y-89535000D02*
X221615000Y-89535000D01*
X203200000Y-95885000D02*
X209550000Y-89535000D01*
X199390000Y-95885000D02*
X203200000Y-95885000D01*
X198120000Y-97155000D02*
X199390000Y-95885000D01*
X177165000Y-50800000D02*
X214630000Y-50800000D01*
X222250000Y-57785000D02*
X215900000Y-57785000D01*
X223485000Y-56550000D02*
X222250000Y-57785000D01*
X167386000Y-51689000D02*
X168275000Y-50800000D01*
X168275000Y-50800000D02*
X177165000Y-50800000D01*
X167386000Y-51689000D02*
X167386000Y-52705000D01*
X215265000Y-57150000D02*
X215900000Y-57785000D01*
X215265000Y-55245000D02*
X215265000Y-57150000D01*
X215265000Y-51435000D02*
X215265000Y-53975000D01*
X214630000Y-50800000D02*
X215265000Y-51435000D01*
X223485000Y-56030000D02*
X223485000Y-56550000D01*
X177800000Y-51435000D02*
X213995000Y-51435000D01*
X226025000Y-57820000D02*
X225425000Y-58420000D01*
X225425000Y-58420000D02*
X215900000Y-58420000D01*
X226025000Y-56030000D02*
X226025000Y-57820000D01*
X170630002Y-51435000D02*
X177800000Y-51435000D01*
X170630002Y-51435000D02*
X169926000Y-52139002D01*
X215265000Y-58420000D02*
X215900000Y-58420000D01*
X214630000Y-57785000D02*
X215265000Y-58420000D01*
X214630000Y-55880000D02*
X214630000Y-57785000D01*
X214630000Y-52070000D02*
X214630000Y-53340000D01*
X213995000Y-51435000D02*
X214630000Y-52070000D01*
X169926000Y-52705000D02*
X169926000Y-52139002D01*
M02*
