G04 #@! TF.FileFunction,Soldermask,Top*
%FSLAX46Y46*%
G04 Gerber Fmt 4.6, Leading zero omitted, Abs format (unit mm)*
G04 Created by KiCad (PCBNEW 4.0.7) date 08/20/19 17:13:51*
%MOMM*%
%LPD*%
G01*
G04 APERTURE LIST*
%ADD10C,0.100000*%
%ADD11C,2.000000*%
%ADD12R,2.200000X2.200000*%
%ADD13C,2.200000*%
%ADD14O,2.000000X2.000000*%
%ADD15R,2.000000X2.000000*%
%ADD16O,2.127200X2.127200*%
%ADD17C,3.600000*%
%ADD18O,2.100000X2.100000*%
%ADD19R,1.924000X1.924000*%
%ADD20C,1.924000*%
G04 APERTURE END LIST*
D10*
D11*
X226060000Y-79375000D03*
X231060000Y-79375000D03*
X186690000Y-79375000D03*
X191690000Y-79375000D03*
X194310000Y-79375000D03*
X199310000Y-79375000D03*
D12*
X191770000Y-59055000D03*
D13*
X191770000Y-56515000D03*
D12*
X204470000Y-59055000D03*
D13*
X204470000Y-56515000D03*
D11*
X186690000Y-71755000D03*
D14*
X196850000Y-71755000D03*
D11*
X196850000Y-67945000D03*
D14*
X186690000Y-67945000D03*
D11*
X199390000Y-75565000D03*
D14*
X209550000Y-75565000D03*
D11*
X226060000Y-67945000D03*
D14*
X236220000Y-67945000D03*
D11*
X226060000Y-71755000D03*
D14*
X236220000Y-71755000D03*
D11*
X199390000Y-67945000D03*
D14*
X209550000Y-67945000D03*
D11*
X226060000Y-75565000D03*
D14*
X236220000Y-75565000D03*
D11*
X199390000Y-71755000D03*
D14*
X209550000Y-71755000D03*
D15*
X185420000Y-98425000D03*
D14*
X233680000Y-83185000D03*
X187960000Y-98425000D03*
X231140000Y-83185000D03*
X190500000Y-98425000D03*
X228600000Y-83185000D03*
X193040000Y-98425000D03*
X226060000Y-83185000D03*
X195580000Y-98425000D03*
X223520000Y-83185000D03*
X198120000Y-98425000D03*
X220980000Y-83185000D03*
X200660000Y-98425000D03*
X218440000Y-83185000D03*
X203200000Y-98425000D03*
X215900000Y-83185000D03*
X205740000Y-98425000D03*
X213360000Y-83185000D03*
X208280000Y-98425000D03*
X210820000Y-83185000D03*
X210820000Y-98425000D03*
X208280000Y-83185000D03*
X213360000Y-98425000D03*
X205740000Y-83185000D03*
X215900000Y-98425000D03*
X203200000Y-83185000D03*
X218440000Y-98425000D03*
X200660000Y-83185000D03*
X220980000Y-98425000D03*
X198120000Y-83185000D03*
X223520000Y-98425000D03*
X195580000Y-83185000D03*
X226060000Y-98425000D03*
X193040000Y-83185000D03*
X228600000Y-98425000D03*
X190500000Y-83185000D03*
X231140000Y-98425000D03*
X187960000Y-83185000D03*
X233680000Y-98425000D03*
X185420000Y-83185000D03*
D16*
X212217000Y-78105000D03*
X214757000Y-78105000D03*
X214757000Y-75565000D03*
X212217000Y-75565000D03*
X214757000Y-73025000D03*
X199390000Y-100965000D03*
X194310000Y-100965000D03*
X191770000Y-100965000D03*
X189230000Y-100965000D03*
X186690000Y-100965000D03*
X184150000Y-100965000D03*
X181610000Y-100965000D03*
X179070000Y-100965000D03*
X234950000Y-52705000D03*
X232410000Y-52705000D03*
X229870000Y-52705000D03*
X227330000Y-52705000D03*
X224790000Y-52705000D03*
X222250000Y-52705000D03*
X219710000Y-52705000D03*
X217170000Y-52705000D03*
X212090000Y-52705000D03*
X209550000Y-52705000D03*
X207010000Y-52705000D03*
X204470000Y-52705000D03*
X201930000Y-52705000D03*
X199390000Y-52705000D03*
X196850000Y-52705000D03*
X194310000Y-52705000D03*
X175006000Y-52705000D03*
X190246000Y-52705000D03*
X187706000Y-52705000D03*
X185166000Y-52705000D03*
D17*
X214630000Y-95885000D03*
X214630000Y-67945000D03*
X238760000Y-52705000D03*
X163830000Y-52705000D03*
X245110000Y-100965000D03*
X162560000Y-100965000D03*
D16*
X167386000Y-52705000D03*
X169926000Y-52705000D03*
X172466000Y-52705000D03*
X177546000Y-52705000D03*
X180086000Y-52705000D03*
X182626000Y-52705000D03*
X176530000Y-100965000D03*
X201930000Y-100965000D03*
X204470000Y-100965000D03*
X207010000Y-100965000D03*
X209550000Y-100965000D03*
X212090000Y-100965000D03*
X214630000Y-100965000D03*
X217170000Y-100965000D03*
X222250000Y-100965000D03*
X224790000Y-100965000D03*
X227330000Y-100965000D03*
X229870000Y-100965000D03*
X232410000Y-100965000D03*
X234950000Y-100965000D03*
X237490000Y-100965000D03*
X240030000Y-100965000D03*
X242570000Y-52705000D03*
X245110000Y-52705000D03*
X242570000Y-55245000D03*
X245110000Y-55245000D03*
X242570000Y-57785000D03*
X245110000Y-57785000D03*
X242570000Y-60325000D03*
X245110000Y-60325000D03*
X242570000Y-62865000D03*
X245110000Y-62865000D03*
X242570000Y-65405000D03*
X245110000Y-65405000D03*
X242570000Y-67945000D03*
X245110000Y-67945000D03*
X242570000Y-70485000D03*
X245110000Y-70485000D03*
X242570000Y-73025000D03*
X245110000Y-73025000D03*
X242570000Y-75565000D03*
X245110000Y-75565000D03*
X242570000Y-78105000D03*
X245110000Y-78105000D03*
X242570000Y-80645000D03*
X245110000Y-80645000D03*
X242570000Y-83185000D03*
X245110000Y-83185000D03*
X242570000Y-85725000D03*
X245110000Y-85725000D03*
X242570000Y-88265000D03*
X245110000Y-88265000D03*
X242570000Y-90805000D03*
X245110000Y-90805000D03*
X242570000Y-93345000D03*
X245110000Y-93345000D03*
X242570000Y-95885000D03*
X245110000Y-95885000D03*
X212217000Y-73025000D03*
D18*
X180975000Y-56515000D03*
X180975000Y-59055000D03*
X180975000Y-61595000D03*
X180975000Y-64135000D03*
X180975000Y-66675000D03*
X180975000Y-69215000D03*
X180975000Y-71755000D03*
X180975000Y-74295000D03*
X180975000Y-76835000D03*
X180975000Y-79375000D03*
X180975000Y-81915000D03*
X180975000Y-84455000D03*
X180975000Y-86995000D03*
X180975000Y-89535000D03*
X180975000Y-92075000D03*
X180975000Y-94615000D03*
X180975000Y-97155000D03*
X175895000Y-56515000D03*
X175895000Y-59055000D03*
X175895000Y-61595000D03*
X175895000Y-64135000D03*
X175895000Y-66675000D03*
X175895000Y-69215000D03*
X175895000Y-71755000D03*
X175895000Y-74295000D03*
X175895000Y-76835000D03*
X175895000Y-79375000D03*
X175895000Y-81915000D03*
X175895000Y-84455000D03*
X175895000Y-86995000D03*
X175895000Y-89535000D03*
X175895000Y-92075000D03*
X175895000Y-94615000D03*
X175895000Y-97155000D03*
X173355000Y-56515000D03*
X173355000Y-59055000D03*
X173355000Y-61595000D03*
X173355000Y-64135000D03*
X173355000Y-66675000D03*
X173355000Y-69215000D03*
X173355000Y-71755000D03*
X173355000Y-74295000D03*
X173355000Y-76835000D03*
X173355000Y-79375000D03*
X173355000Y-81915000D03*
X173355000Y-84455000D03*
X173355000Y-86995000D03*
X173355000Y-89535000D03*
X173355000Y-92075000D03*
X173355000Y-94615000D03*
X173355000Y-97155000D03*
X170815000Y-56515000D03*
X170815000Y-59055000D03*
X170815000Y-61595000D03*
X170815000Y-64135000D03*
X170815000Y-66675000D03*
X170815000Y-69215000D03*
X170815000Y-71755000D03*
X170815000Y-74295000D03*
X170815000Y-76835000D03*
X170815000Y-79375000D03*
X170815000Y-81915000D03*
X170815000Y-84455000D03*
X170815000Y-86995000D03*
X170815000Y-89535000D03*
X170815000Y-92075000D03*
X170815000Y-94615000D03*
X170815000Y-97155000D03*
X168275000Y-56515000D03*
X168275000Y-59055000D03*
X168275000Y-61595000D03*
X168275000Y-64135000D03*
X168275000Y-66675000D03*
X168275000Y-69215000D03*
X168275000Y-71755000D03*
X168275000Y-74295000D03*
X168275000Y-76835000D03*
X168275000Y-79375000D03*
X168275000Y-81915000D03*
X168275000Y-84455000D03*
X168275000Y-86995000D03*
X168275000Y-89535000D03*
X168275000Y-92075000D03*
X168275000Y-94615000D03*
X168275000Y-97155000D03*
X165735000Y-56515000D03*
X165735000Y-59055000D03*
X165735000Y-61595000D03*
X165735000Y-64135000D03*
X165735000Y-66675000D03*
X165735000Y-69215000D03*
X165735000Y-71755000D03*
X165735000Y-74295000D03*
X165735000Y-76835000D03*
X165735000Y-79375000D03*
X165735000Y-81915000D03*
X165735000Y-84455000D03*
X165735000Y-86995000D03*
X165735000Y-89535000D03*
X165735000Y-92075000D03*
X165735000Y-94615000D03*
X165735000Y-97155000D03*
X163195000Y-56515000D03*
X163195000Y-59055000D03*
X163195000Y-61595000D03*
X163195000Y-64135000D03*
X163195000Y-66675000D03*
X163195000Y-69215000D03*
X163195000Y-71755000D03*
X163195000Y-74295000D03*
X163195000Y-76835000D03*
X163195000Y-79375000D03*
X163195000Y-81915000D03*
X163195000Y-84455000D03*
X163195000Y-86995000D03*
X163195000Y-89535000D03*
X163195000Y-92075000D03*
X163195000Y-94615000D03*
X163195000Y-97155000D03*
X160655000Y-56515000D03*
X160655000Y-59055000D03*
X160655000Y-61595000D03*
X160655000Y-64135000D03*
X160655000Y-66675000D03*
X160655000Y-69215000D03*
X160655000Y-71755000D03*
X160655000Y-74295000D03*
X160655000Y-76835000D03*
X160655000Y-79375000D03*
X160655000Y-81915000D03*
X160655000Y-84455000D03*
X160655000Y-86995000D03*
X160655000Y-89535000D03*
X160655000Y-92075000D03*
X160655000Y-94615000D03*
X160655000Y-97155000D03*
X158115000Y-56515000D03*
X158115000Y-59055000D03*
X158115000Y-61595000D03*
X158115000Y-64135000D03*
X158115000Y-66675000D03*
X158115000Y-69215000D03*
X158115000Y-71755000D03*
X158115000Y-74295000D03*
X158115000Y-76835000D03*
X158115000Y-79375000D03*
X158115000Y-81915000D03*
X158115000Y-84455000D03*
X158115000Y-86995000D03*
X158115000Y-89535000D03*
X158115000Y-92075000D03*
X158115000Y-94615000D03*
X158115000Y-97155000D03*
X155575000Y-56515000D03*
X155575000Y-59055000D03*
X155575000Y-61595000D03*
X155575000Y-64135000D03*
X155575000Y-66675000D03*
X155575000Y-69215000D03*
X155575000Y-71755000D03*
X155575000Y-74295000D03*
X155575000Y-76835000D03*
X155575000Y-79375000D03*
X155575000Y-81915000D03*
X155575000Y-84455000D03*
X155575000Y-86995000D03*
X155575000Y-89535000D03*
X155575000Y-92075000D03*
X155575000Y-94615000D03*
X155575000Y-97155000D03*
X153035000Y-56515000D03*
X153035000Y-59055000D03*
X153035000Y-61595000D03*
X153035000Y-64135000D03*
X153035000Y-66675000D03*
X153035000Y-69215000D03*
X153035000Y-71755000D03*
X153035000Y-74295000D03*
X153035000Y-76835000D03*
X153035000Y-79375000D03*
X153035000Y-81915000D03*
X153035000Y-84455000D03*
X153035000Y-86995000D03*
X153035000Y-89535000D03*
X153035000Y-92075000D03*
X153035000Y-94615000D03*
X153035000Y-97155000D03*
X178435000Y-56515000D03*
X178435000Y-59055000D03*
X178435000Y-61595000D03*
X178435000Y-64135000D03*
X178435000Y-66675000D03*
X178435000Y-69215000D03*
X178435000Y-71755000D03*
X178435000Y-74295000D03*
X178435000Y-76835000D03*
X178435000Y-79375000D03*
X178435000Y-81915000D03*
X178435000Y-84455000D03*
X178435000Y-86995000D03*
X178435000Y-89535000D03*
X178435000Y-92075000D03*
X178435000Y-94615000D03*
X178435000Y-97155000D03*
D19*
X218405000Y-56030000D03*
D20*
X220945000Y-56030000D03*
X223485000Y-56030000D03*
X226025000Y-56030000D03*
M02*
