M48
;DRILL file {KiCad 4.0.7} date 08/20/19 17:13:53
;FORMAT={2:4/ absolute / inch / suppress leading zeros}
FMAT,2
INCH,TZ
T1C0.016
T2C0.030
T3C0.031
T4C0.035
T5C0.039
T6C0.040
T7C0.126
%
G90
G05
M72
T1
X72500Y-30750
X73500Y-30250
X74000Y-30250
X74500Y-30250
X74500Y-32000
X75250Y-32000
X76000Y-38000
X76500Y-33500
X76500Y-38000
X76750Y-33250
X77000Y-34000
X77250Y-33500
X77750Y-22750
X78000Y-23500
X80000Y-31500
X84500Y-21000
X84500Y-22000
X84750Y-21250
X84750Y-21750
X85500Y-29500
X85750Y-29250
X86000Y-25750
X86000Y-26250
X86000Y-29000
X86000Y-30000
X86500Y-25000
X86500Y-25750
X86750Y-24750
X86750Y-25500
X87000Y-24500
X87000Y-25750
X87250Y-24250
X87250Y-25500
X87250Y-35250
X87500Y-24000
X87500Y-25750
X87750Y-23750
X87750Y-25500
X88000Y-23500
X88000Y-25750
X88250Y-30000
X88500Y-31750
X89000Y-25750
X89250Y-26000
X89500Y-26250
X91500Y-27750
X91500Y-34250
X91750Y-26500
X91750Y-28000
X92000Y-27000
X92000Y-27750
X92250Y-26000
X92250Y-26750
X92250Y-28000
X92500Y-28750
X92500Y-29250
X92500Y-32250
X92500Y-33750
X92500Y-34250
X92750Y-33500
X92750Y-34000
X93000Y-33250
X93250Y-33000
X94000Y-28750
X94000Y-31250
X94250Y-29000
X94250Y-31000
X94500Y-30000
X94750Y-29000
X94750Y-29500
X95000Y-31250
X97250Y-28500
X97500Y-29000
T2
X85986Y-22059
X86986Y-22059
X87986Y-22059
X88986Y-22059
T3
X73000Y-32750
X73000Y-38750
X73500Y-26750
X73500Y-28250
X73500Y-31250
X74000Y-32750
X74000Y-38750
X75000Y-32750
X75000Y-38750
X75469Y-31250
X76000Y-32750
X76000Y-38750
X76500Y-31250
X77000Y-32750
X77000Y-38750
X77500Y-26750
X77500Y-28250
X78000Y-32750
X78000Y-38750
X78469Y-31250
X78500Y-26750
X78500Y-28250
X78500Y-29750
X79000Y-32750
X79000Y-38750
X80000Y-32750
X80000Y-38750
X81000Y-32750
X81000Y-38750
X82000Y-32750
X82000Y-38750
X82500Y-26750
X82500Y-28250
X82500Y-29750
X83000Y-32750
X83000Y-38750
X84000Y-32750
X84000Y-38750
X85000Y-32750
X85000Y-38750
X86000Y-32750
X86000Y-38750
X87000Y-32750
X87000Y-38750
X88000Y-32750
X88000Y-38750
X89000Y-26750
X89000Y-28250
X89000Y-29750
X89000Y-31250
X89000Y-32750
X89000Y-38750
X90000Y-32750
X90000Y-38750
X90969Y-31250
X91000Y-32750
X91000Y-38750
X92000Y-32750
X92000Y-38750
X93000Y-26750
X93000Y-28250
X93000Y-29750
T4
X75500Y-22250
X75500Y-23250
X80500Y-22250
X80500Y-23250
T5
X60250Y-22250
X60250Y-23250
X60250Y-24250
X60250Y-25250
X60250Y-26250
X60250Y-27250
X60250Y-28250
X60250Y-29250
X60250Y-30250
X60250Y-31250
X60250Y-32250
X60250Y-33250
X60250Y-34250
X60250Y-35250
X60250Y-36250
X60250Y-37250
X60250Y-38250
X61250Y-22250
X61250Y-23250
X61250Y-24250
X61250Y-25250
X61250Y-26250
X61250Y-27250
X61250Y-28250
X61250Y-29250
X61250Y-30250
X61250Y-31250
X61250Y-32250
X61250Y-33250
X61250Y-34250
X61250Y-35250
X61250Y-36250
X61250Y-37250
X61250Y-38250
X62250Y-22250
X62250Y-23250
X62250Y-24250
X62250Y-25250
X62250Y-26250
X62250Y-27250
X62250Y-28250
X62250Y-29250
X62250Y-30250
X62250Y-31250
X62250Y-32250
X62250Y-33250
X62250Y-34250
X62250Y-35250
X62250Y-36250
X62250Y-37250
X62250Y-38250
X63250Y-22250
X63250Y-23250
X63250Y-24250
X63250Y-25250
X63250Y-26250
X63250Y-27250
X63250Y-28250
X63250Y-29250
X63250Y-30250
X63250Y-31250
X63250Y-32250
X63250Y-33250
X63250Y-34250
X63250Y-35250
X63250Y-36250
X63250Y-37250
X63250Y-38250
X64250Y-22250
X64250Y-23250
X64250Y-24250
X64250Y-25250
X64250Y-26250
X64250Y-27250
X64250Y-28250
X64250Y-29250
X64250Y-30250
X64250Y-31250
X64250Y-32250
X64250Y-33250
X64250Y-34250
X64250Y-35250
X64250Y-36250
X64250Y-37250
X64250Y-38250
X65250Y-22250
X65250Y-23250
X65250Y-24250
X65250Y-25250
X65250Y-26250
X65250Y-27250
X65250Y-28250
X65250Y-29250
X65250Y-30250
X65250Y-31250
X65250Y-32250
X65250Y-33250
X65250Y-34250
X65250Y-35250
X65250Y-36250
X65250Y-37250
X65250Y-38250
X66250Y-22250
X66250Y-23250
X66250Y-24250
X66250Y-25250
X66250Y-26250
X66250Y-27250
X66250Y-28250
X66250Y-29250
X66250Y-30250
X66250Y-31250
X66250Y-32250
X66250Y-33250
X66250Y-34250
X66250Y-35250
X66250Y-36250
X66250Y-37250
X66250Y-38250
X67250Y-22250
X67250Y-23250
X67250Y-24250
X67250Y-25250
X67250Y-26250
X67250Y-27250
X67250Y-28250
X67250Y-29250
X67250Y-30250
X67250Y-31250
X67250Y-32250
X67250Y-33250
X67250Y-34250
X67250Y-35250
X67250Y-36250
X67250Y-37250
X67250Y-38250
X68250Y-22250
X68250Y-23250
X68250Y-24250
X68250Y-25250
X68250Y-26250
X68250Y-27250
X68250Y-28250
X68250Y-29250
X68250Y-30250
X68250Y-31250
X68250Y-32250
X68250Y-33250
X68250Y-34250
X68250Y-35250
X68250Y-36250
X68250Y-37250
X68250Y-38250
X69250Y-22250
X69250Y-23250
X69250Y-24250
X69250Y-25250
X69250Y-26250
X69250Y-27250
X69250Y-28250
X69250Y-29250
X69250Y-30250
X69250Y-31250
X69250Y-32250
X69250Y-33250
X69250Y-34250
X69250Y-35250
X69250Y-36250
X69250Y-37250
X69250Y-38250
X70250Y-22250
X70250Y-23250
X70250Y-24250
X70250Y-25250
X70250Y-26250
X70250Y-27250
X70250Y-28250
X70250Y-29250
X70250Y-30250
X70250Y-31250
X70250Y-32250
X70250Y-33250
X70250Y-34250
X70250Y-35250
X70250Y-36250
X70250Y-37250
X70250Y-38250
X71250Y-22250
X71250Y-23250
X71250Y-24250
X71250Y-25250
X71250Y-26250
X71250Y-27250
X71250Y-28250
X71250Y-29250
X71250Y-30250
X71250Y-31250
X71250Y-32250
X71250Y-33250
X71250Y-34250
X71250Y-35250
X71250Y-36250
X71250Y-37250
X71250Y-38250
T6
X65900Y-20750
X66900Y-20750
X67900Y-20750
X68900Y-20750
X69500Y-39750
X69900Y-20750
X70500Y-39750
X70900Y-20750
X71500Y-39750
X71900Y-20750
X72500Y-39750
X72900Y-20750
X73500Y-39750
X73900Y-20750
X74500Y-39750
X74900Y-20750
X75500Y-39750
X76500Y-20750
X76500Y-39750
X77500Y-20750
X78500Y-20750
X78500Y-39750
X79500Y-20750
X79500Y-39750
X80500Y-20750
X80500Y-39750
X81500Y-20750
X81500Y-39750
X82500Y-20750
X82500Y-39750
X83500Y-20750
X83500Y-39750
X83550Y-28750
X83550Y-29750
X83550Y-30750
X84500Y-39750
X84550Y-28750
X84550Y-29750
X84550Y-30750
X85500Y-20750
X85500Y-39750
X86500Y-20750
X87500Y-20750
X87500Y-39750
X88500Y-20750
X88500Y-39750
X89500Y-20750
X89500Y-39750
X90500Y-20750
X90500Y-39750
X91500Y-20750
X91500Y-39750
X92500Y-20750
X92500Y-39750
X93500Y-39750
X94500Y-39750
X95500Y-20750
X95500Y-21750
X95500Y-22750
X95500Y-23750
X95500Y-24750
X95500Y-25750
X95500Y-26750
X95500Y-27750
X95500Y-28750
X95500Y-29750
X95500Y-30750
X95500Y-31750
X95500Y-32750
X95500Y-33750
X95500Y-34750
X95500Y-35750
X95500Y-36750
X95500Y-37750
X96500Y-20750
X96500Y-21750
X96500Y-22750
X96500Y-23750
X96500Y-24750
X96500Y-25750
X96500Y-26750
X96500Y-27750
X96500Y-28750
X96500Y-29750
X96500Y-30750
X96500Y-31750
X96500Y-32750
X96500Y-33750
X96500Y-34750
X96500Y-35750
X96500Y-36750
X96500Y-37750
T7
X64000Y-39750
X64500Y-20750
X84500Y-26750
X84500Y-37750
X94000Y-20750
X96500Y-39750
T0
M30
