G04 #@! TF.FileFunction,Legend,Bot*
%FSLAX46Y46*%
G04 Gerber Fmt 4.6, Leading zero omitted, Abs format (unit mm)*
G04 Created by KiCad (PCBNEW 4.0.7) date 08/20/19 17:13:51*
%MOMM*%
%LPD*%
G01*
G04 APERTURE LIST*
%ADD10C,0.100000*%
%ADD11C,0.150000*%
G04 APERTURE END LIST*
D10*
D11*
X226796194Y-90384762D02*
X226653337Y-90432381D01*
X226415241Y-90432381D01*
X226320003Y-90384762D01*
X226272384Y-90337143D01*
X226224765Y-90241905D01*
X226224765Y-90146667D01*
X226272384Y-90051429D01*
X226320003Y-90003810D01*
X226415241Y-89956190D01*
X226605718Y-89908571D01*
X226700956Y-89860952D01*
X226748575Y-89813333D01*
X226796194Y-89718095D01*
X226796194Y-89622857D01*
X226748575Y-89527619D01*
X226700956Y-89480000D01*
X226605718Y-89432381D01*
X226367622Y-89432381D01*
X226224765Y-89480000D01*
X225653337Y-90432381D02*
X225748575Y-90384762D01*
X225796194Y-90337143D01*
X225843813Y-90241905D01*
X225843813Y-89956190D01*
X225796194Y-89860952D01*
X225748575Y-89813333D01*
X225653337Y-89765714D01*
X225510479Y-89765714D01*
X225415241Y-89813333D01*
X225367622Y-89860952D01*
X225320003Y-89956190D01*
X225320003Y-90241905D01*
X225367622Y-90337143D01*
X225415241Y-90384762D01*
X225510479Y-90432381D01*
X225653337Y-90432381D01*
X225034289Y-89765714D02*
X224653337Y-89765714D01*
X224891432Y-90432381D02*
X224891432Y-89575238D01*
X224843813Y-89480000D01*
X224748575Y-89432381D01*
X224653337Y-89432381D01*
X224462860Y-89765714D02*
X224081908Y-89765714D01*
X224320003Y-89432381D02*
X224320003Y-90289524D01*
X224272384Y-90384762D01*
X224177146Y-90432381D01*
X224081908Y-90432381D01*
X223843812Y-89765714D02*
X223653336Y-90432381D01*
X223462859Y-89956190D01*
X223272383Y-90432381D01*
X223081907Y-89765714D01*
X222272383Y-90432381D02*
X222272383Y-89908571D01*
X222320002Y-89813333D01*
X222415240Y-89765714D01*
X222605717Y-89765714D01*
X222700955Y-89813333D01*
X222272383Y-90384762D02*
X222367621Y-90432381D01*
X222605717Y-90432381D01*
X222700955Y-90384762D01*
X222748574Y-90289524D01*
X222748574Y-90194286D01*
X222700955Y-90099048D01*
X222605717Y-90051429D01*
X222367621Y-90051429D01*
X222272383Y-90003810D01*
X221796193Y-90432381D02*
X221796193Y-89765714D01*
X221796193Y-89956190D02*
X221748574Y-89860952D01*
X221700955Y-89813333D01*
X221605717Y-89765714D01*
X221510478Y-89765714D01*
X220796192Y-90384762D02*
X220891430Y-90432381D01*
X221081907Y-90432381D01*
X221177145Y-90384762D01*
X221224764Y-90289524D01*
X221224764Y-89908571D01*
X221177145Y-89813333D01*
X221081907Y-89765714D01*
X220891430Y-89765714D01*
X220796192Y-89813333D01*
X220748573Y-89908571D01*
X220748573Y-90003810D01*
X221224764Y-90099048D01*
X219129525Y-90432381D02*
X219129525Y-89908571D01*
X219177144Y-89813333D01*
X219272382Y-89765714D01*
X219462859Y-89765714D01*
X219558097Y-89813333D01*
X219129525Y-90384762D02*
X219224763Y-90432381D01*
X219462859Y-90432381D01*
X219558097Y-90384762D01*
X219605716Y-90289524D01*
X219605716Y-90194286D01*
X219558097Y-90099048D01*
X219462859Y-90051429D01*
X219224763Y-90051429D01*
X219129525Y-90003810D01*
X218653335Y-89765714D02*
X218653335Y-90432381D01*
X218653335Y-89860952D02*
X218605716Y-89813333D01*
X218510478Y-89765714D01*
X218367620Y-89765714D01*
X218272382Y-89813333D01*
X218224763Y-89908571D01*
X218224763Y-90432381D01*
X217320001Y-90432381D02*
X217320001Y-89432381D01*
X217320001Y-90384762D02*
X217415239Y-90432381D01*
X217605716Y-90432381D01*
X217700954Y-90384762D01*
X217748573Y-90337143D01*
X217796192Y-90241905D01*
X217796192Y-89956190D01*
X217748573Y-89860952D01*
X217700954Y-89813333D01*
X217605716Y-89765714D01*
X217415239Y-89765714D01*
X217320001Y-89813333D01*
X216129525Y-90384762D02*
X216034287Y-90432381D01*
X215843811Y-90432381D01*
X215748572Y-90384762D01*
X215700953Y-90289524D01*
X215700953Y-90241905D01*
X215748572Y-90146667D01*
X215843811Y-90099048D01*
X215986668Y-90099048D01*
X216081906Y-90051429D01*
X216129525Y-89956190D01*
X216129525Y-89908571D01*
X216081906Y-89813333D01*
X215986668Y-89765714D01*
X215843811Y-89765714D01*
X215748572Y-89813333D01*
X214843810Y-90384762D02*
X214939048Y-90432381D01*
X215129525Y-90432381D01*
X215224763Y-90384762D01*
X215272382Y-90337143D01*
X215320001Y-90241905D01*
X215320001Y-89956190D01*
X215272382Y-89860952D01*
X215224763Y-89813333D01*
X215129525Y-89765714D01*
X214939048Y-89765714D01*
X214843810Y-89813333D01*
X214415239Y-90432381D02*
X214415239Y-89432381D01*
X213986667Y-90432381D02*
X213986667Y-89908571D01*
X214034286Y-89813333D01*
X214129524Y-89765714D01*
X214272382Y-89765714D01*
X214367620Y-89813333D01*
X214415239Y-89860952D01*
X213129524Y-90384762D02*
X213224762Y-90432381D01*
X213415239Y-90432381D01*
X213510477Y-90384762D01*
X213558096Y-90289524D01*
X213558096Y-89908571D01*
X213510477Y-89813333D01*
X213415239Y-89765714D01*
X213224762Y-89765714D01*
X213129524Y-89813333D01*
X213081905Y-89908571D01*
X213081905Y-90003810D01*
X213558096Y-90099048D01*
X212653334Y-90432381D02*
X212653334Y-89765714D01*
X212653334Y-89860952D02*
X212605715Y-89813333D01*
X212510477Y-89765714D01*
X212367619Y-89765714D01*
X212272381Y-89813333D01*
X212224762Y-89908571D01*
X212224762Y-90432381D01*
X212224762Y-89908571D02*
X212177143Y-89813333D01*
X212081905Y-89765714D01*
X211939048Y-89765714D01*
X211843810Y-89813333D01*
X211796191Y-89908571D01*
X211796191Y-90432381D01*
X210891429Y-90432381D02*
X210891429Y-89908571D01*
X210939048Y-89813333D01*
X211034286Y-89765714D01*
X211224763Y-89765714D01*
X211320001Y-89813333D01*
X210891429Y-90384762D02*
X210986667Y-90432381D01*
X211224763Y-90432381D01*
X211320001Y-90384762D01*
X211367620Y-90289524D01*
X211367620Y-90194286D01*
X211320001Y-90099048D01*
X211224763Y-90051429D01*
X210986667Y-90051429D01*
X210891429Y-90003810D01*
X210558096Y-89765714D02*
X210177144Y-89765714D01*
X210415239Y-89432381D02*
X210415239Y-90289524D01*
X210367620Y-90384762D01*
X210272382Y-90432381D01*
X210177144Y-90432381D01*
X209843810Y-90432381D02*
X209843810Y-89765714D01*
X209843810Y-89432381D02*
X209891429Y-89480000D01*
X209843810Y-89527619D01*
X209796191Y-89480000D01*
X209843810Y-89432381D01*
X209843810Y-89527619D01*
X208939048Y-90384762D02*
X209034286Y-90432381D01*
X209224763Y-90432381D01*
X209320001Y-90384762D01*
X209367620Y-90337143D01*
X209415239Y-90241905D01*
X209415239Y-89956190D01*
X209367620Y-89860952D01*
X209320001Y-89813333D01*
X209224763Y-89765714D01*
X209034286Y-89765714D01*
X208939048Y-89813333D01*
X207748572Y-90432381D02*
X207748572Y-89432381D01*
X207748572Y-89813333D02*
X207653334Y-89765714D01*
X207462857Y-89765714D01*
X207367619Y-89813333D01*
X207320000Y-89860952D01*
X207272381Y-89956190D01*
X207272381Y-90241905D01*
X207320000Y-90337143D01*
X207367619Y-90384762D01*
X207462857Y-90432381D01*
X207653334Y-90432381D01*
X207748572Y-90384762D01*
X206939048Y-89765714D02*
X206700953Y-90432381D01*
X206462857Y-89765714D02*
X206700953Y-90432381D01*
X206796191Y-90670476D01*
X206843810Y-90718095D01*
X206939048Y-90765714D01*
X205320000Y-89908571D02*
X204986666Y-89908571D01*
X204843809Y-90432381D02*
X205320000Y-90432381D01*
X205320000Y-89432381D01*
X204843809Y-89432381D01*
X204415238Y-90432381D02*
X204415238Y-89765714D01*
X204415238Y-89956190D02*
X204367619Y-89860952D01*
X204320000Y-89813333D01*
X204224762Y-89765714D01*
X204129523Y-89765714D01*
X203939047Y-89765714D02*
X203558095Y-89765714D01*
X203796190Y-89432381D02*
X203796190Y-90289524D01*
X203748571Y-90384762D01*
X203653333Y-90432381D01*
X203558095Y-90432381D01*
X202796189Y-89765714D02*
X202796189Y-90432381D01*
X203224761Y-89765714D02*
X203224761Y-90289524D01*
X203177142Y-90384762D01*
X203081904Y-90432381D01*
X202939046Y-90432381D01*
X202843808Y-90384762D01*
X202796189Y-90337143D01*
X202319999Y-90432381D02*
X202319999Y-89765714D01*
X202319999Y-89956190D02*
X202272380Y-89860952D01*
X202224761Y-89813333D01*
X202129523Y-89765714D01*
X202034284Y-89765714D01*
X201700951Y-90432381D02*
X201700951Y-89432381D01*
X201605713Y-90051429D02*
X201319998Y-90432381D01*
X201319998Y-89765714D02*
X201700951Y-90146667D01*
X200129522Y-90432381D02*
X200129522Y-89432381D01*
X199558093Y-90432381D02*
X199986665Y-89860952D01*
X199558093Y-89432381D02*
X200129522Y-90003810D01*
X198986665Y-90432381D02*
X199081903Y-90384762D01*
X199129522Y-90337143D01*
X199177141Y-90241905D01*
X199177141Y-89956190D01*
X199129522Y-89860952D01*
X199081903Y-89813333D01*
X198986665Y-89765714D01*
X198843807Y-89765714D01*
X198748569Y-89813333D01*
X198700950Y-89860952D01*
X198653331Y-89956190D01*
X198653331Y-90241905D01*
X198700950Y-90337143D01*
X198748569Y-90384762D01*
X198843807Y-90432381D01*
X198986665Y-90432381D01*
X197796188Y-90384762D02*
X197891426Y-90432381D01*
X198081903Y-90432381D01*
X198177141Y-90384762D01*
X198224760Y-90337143D01*
X198272379Y-90241905D01*
X198272379Y-89956190D01*
X198224760Y-89860952D01*
X198177141Y-89813333D01*
X198081903Y-89765714D01*
X197891426Y-89765714D01*
X197796188Y-89813333D01*
X196939045Y-90432381D02*
X196939045Y-89908571D01*
X196986664Y-89813333D01*
X197081902Y-89765714D01*
X197272379Y-89765714D01*
X197367617Y-89813333D01*
X196939045Y-90384762D02*
X197034283Y-90432381D01*
X197272379Y-90432381D01*
X197367617Y-90384762D01*
X197415236Y-90289524D01*
X197415236Y-90194286D01*
X197367617Y-90099048D01*
X197272379Y-90051429D01*
X197034283Y-90051429D01*
X196939045Y-90003810D01*
X196319998Y-90432381D02*
X196415236Y-90384762D01*
X196462855Y-90289524D01*
X196462855Y-89432381D01*
X195510473Y-90432381D02*
X195510473Y-89908571D01*
X195558092Y-89813333D01*
X195653330Y-89765714D01*
X195843807Y-89765714D01*
X195939045Y-89813333D01*
X195510473Y-90384762D02*
X195605711Y-90432381D01*
X195843807Y-90432381D01*
X195939045Y-90384762D01*
X195986664Y-90289524D01*
X195986664Y-90194286D01*
X195939045Y-90099048D01*
X195843807Y-90051429D01*
X195605711Y-90051429D01*
X195510473Y-90003810D01*
X195034283Y-90432381D02*
X195034283Y-89765714D01*
X195034283Y-89956190D02*
X194986664Y-89860952D01*
X194939045Y-89813333D01*
X194843807Y-89765714D01*
X194748568Y-89765714D01*
X228010478Y-92082381D02*
X228010478Y-91082381D01*
X227581906Y-92082381D02*
X227581906Y-91558571D01*
X227629525Y-91463333D01*
X227724763Y-91415714D01*
X227867621Y-91415714D01*
X227962859Y-91463333D01*
X228010478Y-91510952D01*
X227248573Y-91415714D02*
X226867621Y-91415714D01*
X227105716Y-91082381D02*
X227105716Y-91939524D01*
X227058097Y-92034762D01*
X226962859Y-92082381D01*
X226867621Y-92082381D01*
X226677144Y-91415714D02*
X226296192Y-91415714D01*
X226534287Y-91082381D02*
X226534287Y-91939524D01*
X226486668Y-92034762D01*
X226391430Y-92082381D01*
X226296192Y-92082381D01*
X225962858Y-91415714D02*
X225962858Y-92415714D01*
X225962858Y-91463333D02*
X225867620Y-91415714D01*
X225677143Y-91415714D01*
X225581905Y-91463333D01*
X225534286Y-91510952D01*
X225486667Y-91606190D01*
X225486667Y-91891905D01*
X225534286Y-91987143D01*
X225581905Y-92034762D01*
X225677143Y-92082381D01*
X225867620Y-92082381D01*
X225962858Y-92034762D01*
X225105715Y-92034762D02*
X225010477Y-92082381D01*
X224820001Y-92082381D01*
X224724762Y-92034762D01*
X224677143Y-91939524D01*
X224677143Y-91891905D01*
X224724762Y-91796667D01*
X224820001Y-91749048D01*
X224962858Y-91749048D01*
X225058096Y-91701429D01*
X225105715Y-91606190D01*
X225105715Y-91558571D01*
X225058096Y-91463333D01*
X224962858Y-91415714D01*
X224820001Y-91415714D01*
X224724762Y-91463333D01*
X224248572Y-91987143D02*
X224200953Y-92034762D01*
X224248572Y-92082381D01*
X224296191Y-92034762D01*
X224248572Y-91987143D01*
X224248572Y-92082381D01*
X224248572Y-91463333D02*
X224200953Y-91510952D01*
X224248572Y-91558571D01*
X224296191Y-91510952D01*
X224248572Y-91463333D01*
X224248572Y-91558571D01*
X223058096Y-91034762D02*
X223915239Y-92320476D01*
X222010477Y-91034762D02*
X222867620Y-92320476D01*
X221248572Y-91415714D02*
X221248572Y-92225238D01*
X221296191Y-92320476D01*
X221343810Y-92368095D01*
X221439049Y-92415714D01*
X221581906Y-92415714D01*
X221677144Y-92368095D01*
X221248572Y-92034762D02*
X221343810Y-92082381D01*
X221534287Y-92082381D01*
X221629525Y-92034762D01*
X221677144Y-91987143D01*
X221724763Y-91891905D01*
X221724763Y-91606190D01*
X221677144Y-91510952D01*
X221629525Y-91463333D01*
X221534287Y-91415714D01*
X221343810Y-91415714D01*
X221248572Y-91463333D01*
X220772382Y-92082381D02*
X220772382Y-91415714D01*
X220772382Y-91082381D02*
X220820001Y-91130000D01*
X220772382Y-91177619D01*
X220724763Y-91130000D01*
X220772382Y-91082381D01*
X220772382Y-91177619D01*
X220439049Y-91415714D02*
X220058097Y-91415714D01*
X220296192Y-91082381D02*
X220296192Y-91939524D01*
X220248573Y-92034762D01*
X220153335Y-92082381D01*
X220058097Y-92082381D01*
X219581906Y-92082381D02*
X219677144Y-92034762D01*
X219724763Y-91939524D01*
X219724763Y-91082381D01*
X218772381Y-92082381D02*
X218772381Y-91558571D01*
X218820000Y-91463333D01*
X218915238Y-91415714D01*
X219105715Y-91415714D01*
X219200953Y-91463333D01*
X218772381Y-92034762D02*
X218867619Y-92082381D01*
X219105715Y-92082381D01*
X219200953Y-92034762D01*
X219248572Y-91939524D01*
X219248572Y-91844286D01*
X219200953Y-91749048D01*
X219105715Y-91701429D01*
X218867619Y-91701429D01*
X218772381Y-91653810D01*
X218296191Y-92082381D02*
X218296191Y-91082381D01*
X218296191Y-91463333D02*
X218200953Y-91415714D01*
X218010476Y-91415714D01*
X217915238Y-91463333D01*
X217867619Y-91510952D01*
X217820000Y-91606190D01*
X217820000Y-91891905D01*
X217867619Y-91987143D01*
X217915238Y-92034762D01*
X218010476Y-92082381D01*
X218200953Y-92082381D01*
X218296191Y-92034762D01*
X217391429Y-91987143D02*
X217343810Y-92034762D01*
X217391429Y-92082381D01*
X217439048Y-92034762D01*
X217391429Y-91987143D01*
X217391429Y-92082381D01*
X216486667Y-92034762D02*
X216581905Y-92082381D01*
X216772382Y-92082381D01*
X216867620Y-92034762D01*
X216915239Y-91987143D01*
X216962858Y-91891905D01*
X216962858Y-91606190D01*
X216915239Y-91510952D01*
X216867620Y-91463333D01*
X216772382Y-91415714D01*
X216581905Y-91415714D01*
X216486667Y-91463333D01*
X215915239Y-92082381D02*
X216010477Y-92034762D01*
X216058096Y-91987143D01*
X216105715Y-91891905D01*
X216105715Y-91606190D01*
X216058096Y-91510952D01*
X216010477Y-91463333D01*
X215915239Y-91415714D01*
X215772381Y-91415714D01*
X215677143Y-91463333D01*
X215629524Y-91510952D01*
X215581905Y-91606190D01*
X215581905Y-91891905D01*
X215629524Y-91987143D01*
X215677143Y-92034762D01*
X215772381Y-92082381D01*
X215915239Y-92082381D01*
X215153334Y-92082381D02*
X215153334Y-91415714D01*
X215153334Y-91510952D02*
X215105715Y-91463333D01*
X215010477Y-91415714D01*
X214867619Y-91415714D01*
X214772381Y-91463333D01*
X214724762Y-91558571D01*
X214724762Y-92082381D01*
X214724762Y-91558571D02*
X214677143Y-91463333D01*
X214581905Y-91415714D01*
X214439048Y-91415714D01*
X214343810Y-91463333D01*
X214296191Y-91558571D01*
X214296191Y-92082381D01*
X213105715Y-91034762D02*
X213962858Y-92320476D01*
X212629525Y-91510952D02*
X212724763Y-91463333D01*
X212772382Y-91415714D01*
X212820001Y-91320476D01*
X212820001Y-91272857D01*
X212772382Y-91177619D01*
X212724763Y-91130000D01*
X212629525Y-91082381D01*
X212439048Y-91082381D01*
X212343810Y-91130000D01*
X212296191Y-91177619D01*
X212248572Y-91272857D01*
X212248572Y-91320476D01*
X212296191Y-91415714D01*
X212343810Y-91463333D01*
X212439048Y-91510952D01*
X212629525Y-91510952D01*
X212724763Y-91558571D01*
X212772382Y-91606190D01*
X212820001Y-91701429D01*
X212820001Y-91891905D01*
X212772382Y-91987143D01*
X212724763Y-92034762D01*
X212629525Y-92082381D01*
X212439048Y-92082381D01*
X212343810Y-92034762D01*
X212296191Y-91987143D01*
X212248572Y-91891905D01*
X212248572Y-91701429D01*
X212296191Y-91606190D01*
X212343810Y-91558571D01*
X212439048Y-91510952D01*
X211820001Y-92082381D02*
X211820001Y-91082381D01*
X211820001Y-91463333D02*
X211724763Y-91415714D01*
X211534286Y-91415714D01*
X211439048Y-91463333D01*
X211391429Y-91510952D01*
X211343810Y-91606190D01*
X211343810Y-91891905D01*
X211391429Y-91987143D01*
X211439048Y-92034762D01*
X211534286Y-92082381D01*
X211724763Y-92082381D01*
X211820001Y-92034762D01*
X210915239Y-92082381D02*
X210915239Y-91415714D01*
X210915239Y-91082381D02*
X210962858Y-91130000D01*
X210915239Y-91177619D01*
X210867620Y-91130000D01*
X210915239Y-91082381D01*
X210915239Y-91177619D01*
X210581906Y-91415714D02*
X210200954Y-91415714D01*
X210439049Y-91082381D02*
X210439049Y-91939524D01*
X210391430Y-92034762D01*
X210296192Y-92082381D01*
X210200954Y-92082381D01*
X210010477Y-91415714D02*
X209629525Y-91415714D01*
X209867620Y-92082381D02*
X209867620Y-91225238D01*
X209820001Y-91130000D01*
X209724763Y-91082381D01*
X209629525Y-91082381D01*
X209153334Y-92082381D02*
X209248572Y-92034762D01*
X209296191Y-91987143D01*
X209343810Y-91891905D01*
X209343810Y-91606190D01*
X209296191Y-91510952D01*
X209248572Y-91463333D01*
X209153334Y-91415714D01*
X209010476Y-91415714D01*
X208915238Y-91463333D01*
X208867619Y-91510952D01*
X208820000Y-91606190D01*
X208820000Y-91891905D01*
X208867619Y-91987143D01*
X208915238Y-92034762D01*
X209010476Y-92082381D01*
X209153334Y-92082381D01*
X208391429Y-92082381D02*
X208391429Y-91415714D01*
X208391429Y-91606190D02*
X208343810Y-91510952D01*
X208296191Y-91463333D01*
X208200953Y-91415714D01*
X208105714Y-91415714D01*
X207343809Y-92034762D02*
X207439047Y-92082381D01*
X207629524Y-92082381D01*
X207724762Y-92034762D01*
X207772381Y-91987143D01*
X207820000Y-91891905D01*
X207820000Y-91606190D01*
X207772381Y-91510952D01*
X207724762Y-91463333D01*
X207629524Y-91415714D01*
X207439047Y-91415714D01*
X207343809Y-91463333D01*
X206534285Y-92034762D02*
X206629523Y-92082381D01*
X206820000Y-92082381D01*
X206915238Y-92034762D01*
X206962857Y-91939524D01*
X206962857Y-91558571D01*
X206915238Y-91463333D01*
X206820000Y-91415714D01*
X206629523Y-91415714D01*
X206534285Y-91463333D01*
X206486666Y-91558571D01*
X206486666Y-91653810D01*
X206962857Y-91749048D01*
X205343809Y-91034762D02*
X206200952Y-92320476D01*
X205010476Y-92082381D02*
X205010476Y-91415714D01*
X205010476Y-91606190D02*
X204962857Y-91510952D01*
X204915238Y-91463333D01*
X204820000Y-91415714D01*
X204724761Y-91415714D01*
X204010475Y-92034762D02*
X204105713Y-92082381D01*
X204296190Y-92082381D01*
X204391428Y-92034762D01*
X204439047Y-91939524D01*
X204439047Y-91558571D01*
X204391428Y-91463333D01*
X204296190Y-91415714D01*
X204105713Y-91415714D01*
X204010475Y-91463333D01*
X203962856Y-91558571D01*
X203962856Y-91653810D01*
X204439047Y-91749048D01*
X203677142Y-91415714D02*
X203296190Y-91415714D01*
X203534285Y-91082381D02*
X203534285Y-91939524D01*
X203486666Y-92034762D01*
X203391428Y-92082381D01*
X203296190Y-92082381D01*
X202962856Y-92082381D02*
X202962856Y-91415714D01*
X202962856Y-91606190D02*
X202915237Y-91510952D01*
X202867618Y-91463333D01*
X202772380Y-91415714D01*
X202677141Y-91415714D01*
X202200951Y-92082381D02*
X202296189Y-92034762D01*
X202343808Y-91987143D01*
X202391427Y-91891905D01*
X202391427Y-91606190D01*
X202343808Y-91510952D01*
X202296189Y-91463333D01*
X202200951Y-91415714D01*
X202058093Y-91415714D01*
X201962855Y-91463333D01*
X201915236Y-91510952D01*
X201867617Y-91606190D01*
X201867617Y-91891905D01*
X201915236Y-91987143D01*
X201962855Y-92034762D01*
X202058093Y-92082381D01*
X202200951Y-92082381D01*
X201486665Y-92034762D02*
X201391427Y-92082381D01*
X201200951Y-92082381D01*
X201105712Y-92034762D01*
X201058093Y-91939524D01*
X201058093Y-91891905D01*
X201105712Y-91796667D01*
X201200951Y-91749048D01*
X201343808Y-91749048D01*
X201439046Y-91701429D01*
X201486665Y-91606190D01*
X201486665Y-91558571D01*
X201439046Y-91463333D01*
X201343808Y-91415714D01*
X201200951Y-91415714D01*
X201105712Y-91463333D01*
X200629522Y-92082381D02*
X200629522Y-91082381D01*
X200200950Y-92082381D02*
X200200950Y-91558571D01*
X200248569Y-91463333D01*
X200343807Y-91415714D01*
X200486665Y-91415714D01*
X200581903Y-91463333D01*
X200629522Y-91510952D01*
X199724760Y-92082381D02*
X199724760Y-91415714D01*
X199724760Y-91082381D02*
X199772379Y-91130000D01*
X199724760Y-91177619D01*
X199677141Y-91130000D01*
X199724760Y-91082381D01*
X199724760Y-91177619D01*
X198867617Y-92034762D02*
X198962855Y-92082381D01*
X199153332Y-92082381D01*
X199248570Y-92034762D01*
X199296189Y-91939524D01*
X199296189Y-91558571D01*
X199248570Y-91463333D01*
X199153332Y-91415714D01*
X198962855Y-91415714D01*
X198867617Y-91463333D01*
X198819998Y-91558571D01*
X198819998Y-91653810D01*
X199296189Y-91749048D01*
X198248570Y-92082381D02*
X198343808Y-92034762D01*
X198391427Y-91939524D01*
X198391427Y-91082381D01*
X197439045Y-92082381D02*
X197439045Y-91082381D01*
X197439045Y-92034762D02*
X197534283Y-92082381D01*
X197724760Y-92082381D01*
X197819998Y-92034762D01*
X197867617Y-91987143D01*
X197915236Y-91891905D01*
X197915236Y-91606190D01*
X197867617Y-91510952D01*
X197819998Y-91463333D01*
X197724760Y-91415714D01*
X197534283Y-91415714D01*
X197439045Y-91463333D01*
X196439045Y-92082381D02*
X197010474Y-92082381D01*
X196724760Y-92082381D02*
X196724760Y-91082381D01*
X196819998Y-91225238D01*
X196915236Y-91320476D01*
X197010474Y-91368095D01*
X195867617Y-91510952D02*
X195962855Y-91463333D01*
X196010474Y-91415714D01*
X196058093Y-91320476D01*
X196058093Y-91272857D01*
X196010474Y-91177619D01*
X195962855Y-91130000D01*
X195867617Y-91082381D01*
X195677140Y-91082381D01*
X195581902Y-91130000D01*
X195534283Y-91177619D01*
X195486664Y-91272857D01*
X195486664Y-91320476D01*
X195534283Y-91415714D01*
X195581902Y-91463333D01*
X195677140Y-91510952D01*
X195867617Y-91510952D01*
X195962855Y-91558571D01*
X196010474Y-91606190D01*
X196058093Y-91701429D01*
X196058093Y-91891905D01*
X196010474Y-91987143D01*
X195962855Y-92034762D01*
X195867617Y-92082381D01*
X195677140Y-92082381D01*
X195581902Y-92034762D01*
X195534283Y-91987143D01*
X195486664Y-91891905D01*
X195486664Y-91701429D01*
X195534283Y-91606190D01*
X195581902Y-91558571D01*
X195677140Y-91510952D01*
X194867617Y-91082381D02*
X194772378Y-91082381D01*
X194677140Y-91130000D01*
X194629521Y-91177619D01*
X194581902Y-91272857D01*
X194534283Y-91463333D01*
X194534283Y-91701429D01*
X194581902Y-91891905D01*
X194629521Y-91987143D01*
X194677140Y-92034762D01*
X194772378Y-92082381D01*
X194867617Y-92082381D01*
X194962855Y-92034762D01*
X195010474Y-91987143D01*
X195058093Y-91891905D01*
X195105712Y-91701429D01*
X195105712Y-91463333D01*
X195058093Y-91272857D01*
X195010474Y-91177619D01*
X194962855Y-91130000D01*
X194867617Y-91082381D01*
X194153331Y-91177619D02*
X194105712Y-91130000D01*
X194010474Y-91082381D01*
X193772378Y-91082381D01*
X193677140Y-91130000D01*
X193629521Y-91177619D01*
X193581902Y-91272857D01*
X193581902Y-91368095D01*
X193629521Y-91510952D01*
X194200950Y-92082381D01*
X193581902Y-92082381D01*
X198164286Y-79013095D02*
X198126191Y-78975000D01*
X198050000Y-78936905D01*
X197859524Y-78936905D01*
X197783334Y-78975000D01*
X197745238Y-79013095D01*
X197707143Y-79089286D01*
X197707143Y-79165476D01*
X197745238Y-79279762D01*
X198202381Y-79736905D01*
X197707143Y-79736905D01*
X197402381Y-79013095D02*
X197364286Y-78975000D01*
X197288095Y-78936905D01*
X197097619Y-78936905D01*
X197021429Y-78975000D01*
X196983333Y-79013095D01*
X196945238Y-79089286D01*
X196945238Y-79165476D01*
X196983333Y-79279762D01*
X197440476Y-79736905D01*
X196945238Y-79736905D01*
X196602381Y-79203571D02*
X196602381Y-80003571D01*
X196602381Y-79241667D02*
X196526190Y-79203571D01*
X196373809Y-79203571D01*
X196297619Y-79241667D01*
X196259524Y-79279762D01*
X196221428Y-79355952D01*
X196221428Y-79584524D01*
X196259524Y-79660714D01*
X196297619Y-79698810D01*
X196373809Y-79736905D01*
X196526190Y-79736905D01*
X196602381Y-79698810D01*
X195611904Y-79317857D02*
X195878571Y-79317857D01*
X195878571Y-79736905D02*
X195878571Y-78936905D01*
X195497618Y-78936905D01*
M02*
